<svg width="36" height="36" viewBox="0 0 36 36" fill="none" xmlns="http://www.w3.org/2000/svg">
<path d="M34.1833 12.5189C36.2667 10.4356 35.3167 8.00224 34.1833 6.81891L29.1833 1.81891C27.0833 -0.264425 24.6667 0.685575 23.4833 1.81891L20.65 4.66891H16.3333C13.1667 4.66891 11.3333 6.33558 10.4 8.25224L2.99998 15.6522V22.3189L1.81665 23.4856C-0.266683 25.5856 0.683317 28.0022 1.81665 29.1856L6.81665 34.1856C7.71665 35.0856 8.68332 35.4189 9.59998 35.4189C10.7833 35.4189 11.8667 34.8356 12.5167 34.1856L17.0167 29.6689H23C25.8333 29.6689 27.2667 27.9022 27.7833 26.1689C29.6667 25.6689 30.7 24.2356 31.1167 22.8356C33.7 22.1689 34.6667 19.7189 34.6667 18.0022V13.0022H33.6833L34.1833 12.5189ZM31.3333 18.0022C31.3333 18.7522 31.0167 19.6689 29.6667 19.6689H28V21.3356C28 22.0856 27.6833 23.0022 26.3333 23.0022H24.6667V24.6689C24.6667 25.4189 24.35 26.3356 23 26.3356H15.65L10.1833 31.8022C9.66665 32.2856 9.36665 32.0022 9.18332 31.8189L4.19998 26.8522C3.71665 26.3356 3.99998 26.0356 4.18332 25.8522L6.33332 23.6856V17.0189L9.66665 13.6856V16.3356C9.66665 18.3522 11 21.3356 14.6667 21.3356C18.3333 21.3356 19.6667 18.3522 19.6667 16.3356H31.3333V18.0022ZM31.8167 10.1522L28.9833 13.0022H16.3333V16.3356C16.3333 17.0856 16.0167 18.0022 14.6667 18.0022C13.3167 18.0022 13 17.0856 13 16.3356V11.3356C13 10.5689 13.2833 8.00224 16.3333 8.00224H22.0167L25.8167 4.20224C26.3333 3.71891 26.6333 4.00224 26.8167 4.18558L31.8 9.15224C32.2833 9.66891 32 9.96891 31.8167 10.1522Z" fill="url(#paint0_linear_1564_8007)"/>
<defs>
<linearGradient id="paint0_linear_1564_8007" x1="33.5517" y1="26.5478" x2="15.7906" y2="26.6474" gradientUnits="userSpaceOnUse">
<stop stop-color="#D6545B"/>
<stop offset="1" stop-color="#FC946D"/>
</linearGradient>
</defs>
</svg>
