<svg width="20" height="19" viewBox="0 0 20 19" fill="none" xmlns="http://www.w3.org/2000/svg">
<path d="M18.3472 12.8557L13.9306 10.8766L13.9184 10.871C13.6892 10.7729 13.439 10.7336 13.1907 10.7565C12.9424 10.7794 12.7037 10.8639 12.4963 11.0022C12.4718 11.0184 12.4484 11.0359 12.4259 11.0547L10.1441 13.0001C8.69845 12.2979 7.20595 10.8166 6.50376 9.38974L8.45188 7.07318C8.47063 7.04974 8.48845 7.0263 8.50532 7.00099C8.64072 6.79409 8.72287 6.55692 8.74446 6.31059C8.76605 6.06427 8.72641 5.81642 8.62907 5.58912V5.57787L6.64438 1.1538C6.5157 0.856865 6.29444 0.609506 6.01362 0.448653C5.7328 0.2878 5.4075 0.22208 5.08626 0.261304C3.81592 0.428467 2.64986 1.05234 1.80588 2.01639C0.961903 2.98045 0.497712 4.21876 0.500008 5.50005C0.500008 12.9438 6.55626 19.0001 14 19.0001C15.2813 19.0023 16.5196 18.5382 17.4837 17.6942C18.4477 16.8502 19.0716 15.6841 19.2388 14.4138C19.2781 14.0927 19.2125 13.7674 19.0518 13.4866C18.8911 13.2058 18.644 12.9845 18.3472 12.8557ZM14 17.5001C10.8185 17.4966 7.76825 16.2312 5.51856 13.9815C3.26888 11.7318 2.00348 8.68159 2.00001 5.50005C1.99648 4.58458 2.32631 3.69911 2.92789 3.00903C3.52947 2.31895 4.36167 1.87143 5.26907 1.75005C5.2687 1.7538 5.2687 1.75756 5.26907 1.7613L7.23782 6.16755L5.30001 8.48693C5.28034 8.50956 5.26247 8.5337 5.24657 8.55912C5.10549 8.7756 5.02273 9.02486 5.0063 9.28274C4.98988 9.54061 5.04035 9.79836 5.15282 10.031C6.0022 11.7682 7.75251 13.5054 9.50845 14.3538C9.74279 14.4652 10.002 14.5139 10.2608 14.4952C10.5196 14.4765 10.7692 14.3909 10.985 14.2469C11.0091 14.2307 11.0322 14.2132 11.0544 14.1944L13.3334 12.2501L17.7397 14.2235H17.75C17.6301 15.1322 17.1833 15.9661 16.4931 16.5691C15.8028 17.1722 14.9166 17.5031 14 17.5001Z" fill="url(#paint0_linear_1241_2756)"/>
<defs>
<linearGradient id="paint0_linear_1241_2756" x1="18.2469" y1="14.2247" x2="8.68555" y2="14.2784" gradientUnits="userSpaceOnUse">
<stop stop-color="#D6545B"/>
<stop offset="1" stop-color="#FC946D"/>
</linearGradient>
</defs>
</svg>
