<svg width="25" height="24" viewBox="0 0 25 24" fill="none" xmlns="http://www.w3.org/2000/svg">
<g clip-path="url(#clip0_3219_5824)">
<path fill-rule="evenodd" clip-rule="evenodd" d="M0.664538 4.7805C0.73483 4.69293 0.823888 4.62227 0.925139 4.57372C1.02639 4.52517 1.13725 4.49998 1.24954 4.5H20.7495C20.8618 4.50004 20.9725 4.52527 21.0737 4.57383C21.1749 4.62238 21.2639 4.69302 21.3341 4.78054C21.4044 4.86806 21.4541 4.97023 21.4796 5.07952C21.5051 5.18881 21.5058 5.30242 21.4815 5.412L21.1515 6.8985C22.2731 7.19795 23.2356 7.91911 23.8381 8.91137C24.4406 9.90363 24.6364 11.0903 24.3848 12.2235C24.1331 13.3568 23.4534 14.349 22.4875 14.993C21.5217 15.6369 20.3444 15.8829 19.2015 15.6795L19.0035 16.5645C18.8183 17.3971 18.3547 18.1417 17.6893 18.6753C17.0239 19.209 16.1965 19.4999 15.3435 19.5H6.65554C5.80237 19.4998 4.97477 19.2087 4.30936 18.6747C3.64395 18.1408 3.1805 17.3959 2.99554 16.563L0.517538 5.412C0.493471 5.30268 0.494182 5.18935 0.519619 5.08034C0.545056 4.97132 0.594573 4.86788 0.664538 4.7805ZM19.5255 14.2125C20.2825 14.3377 21.0587 14.168 21.6944 13.7385C22.3302 13.3089 22.7772 12.6522 22.9435 11.9032C23.1099 11.1542 22.9829 10.3699 22.5888 9.7116C22.1947 9.05332 21.5633 8.57107 20.8245 8.364L19.5255 14.2125ZM2.18554 6L4.45954 16.2375C4.57046 16.7373 4.8485 17.1843 5.24775 17.5047C5.647 17.8252 6.1436 17.9999 6.65554 18H15.3435C15.8555 17.9999 16.3521 17.8252 16.7513 17.5047C17.1506 17.1843 17.4286 16.7373 17.5395 16.2375L19.815 6H2.18554Z" fill="black"/>
</g>
<defs>
<clipPath id="clip0_3219_5824">
<rect width="24" height="24" fill="white" transform="translate(0.5)"/>
</clipPath>
</defs>
</svg>
