<svg width="591" height="150" viewBox="0 0 591 150" fill="none" xmlns="http://www.w3.org/2000/svg">
<mask id="mask0_501_86" style="mask-type:alpha" maskUnits="userSpaceOnUse" x="0" y="0" width="591" height="150">
<path d="M47.059 64.8005C47.059 71.6076 43.0452 75.4974 30.5279 75.4974C28.8313 75.4974 22.5002 75.3731 20.5553 75.3731V52.6452H34.1693C43.8935 52.6452 47.059 57.6314 47.059 63.466V64.8005ZM46.5625 28.5726C46.5625 33.7968 43.7693 38.1727 34.1589 38.1727H20.545V17.1415C22.2416 17.0174 27.8382 17.0174 29.783 17.0174C42.3107 17.0174 46.5625 20.0588 46.5625 26.7416V28.5726ZM56.4213 45.4762C62.866 42.3107 66.6315 35.5037 66.6315 27.6002V25.4071C66.6315 6.08279 51.1868 0 28.2106 0C20.4312 0 10.5828 0.724142 6.44487 1.33449C1.70691 2.06898 0 3.76555 0 9.23802V83.1629C0 88.635 1.8207 90.2182 6.69315 91.0664C11.4311 91.9147 20.9174 92.5248 28.9451 92.5248C49.9761 92.5248 67.2421 86.6903 67.2421 65.2868V63.466C67.2421 55.0761 62.8558 48.6314 56.4213 45.4762Z" fill="#041B44"/>
<path d="M145.418 88.3975V77.0904C145.418 75.7559 144.322 74.6595 142.987 74.6595H122.07C116.359 74.6595 114.29 72.7143 114.29 66.394V3.52773C114.29 2.19324 113.194 1.09668 111.859 1.09668H95.9284C94.5939 1.09668 93.4974 2.19324 93.4974 3.52773V66.3833C93.4974 88.5112 107.473 92.5249 123.166 92.5249C129.611 92.5249 138.974 91.8011 142.987 90.9422C144.684 90.5803 145.418 89.9696 145.418 88.3975Z" fill="#041B44"/>
<path d="M234.416 57.5077V3.40359C234.416 2.0691 233.195 1.09668 231.86 1.09668H216.053C214.719 1.09668 213.622 2.0691 213.622 3.40359V57.5077C213.622 69.9112 210.219 75.1351 199.274 75.1351C188.329 75.1351 185.05 69.9112 185.05 57.5077V3.40359C185.05 2.0691 183.953 1.09668 182.618 1.09668H166.687C165.353 1.09668 164.256 2.0691 164.256 3.40359V57.5077C164.256 85.232 179.939 92.5249 199.274 92.5249C218.609 92.5249 234.416 85.232 234.416 57.5077Z" fill="#041B44"/>
<path d="M318.437 88.3974V77.0903C318.437 75.7558 317.34 74.6593 316.006 74.6593H291.323C285.612 74.6593 283.544 72.7142 283.544 66.3939V53.4934H315.033C316.368 53.4934 317.464 52.3969 317.464 51.0624V39.5175C317.464 38.1831 316.368 37.0865 315.033 37.0865H283.544V26.0174C283.544 19.6967 285.612 17.7519 291.323 17.7519H316.006C317.34 17.7519 318.437 16.6553 318.437 15.3208V4.01383C318.437 2.43105 317.713 1.8207 316.006 1.58277C311.744 0.972421 305.671 0 292.533 0C276.85 0 262.864 3.88969 262.864 26.0174V66.3832C262.864 88.5111 276.726 92.5248 292.409 92.5248C305.536 92.5248 311.744 91.5523 315.995 90.9421C317.702 90.704 318.437 89.9695 318.437 88.3974Z" fill="#041B44"/>
<path d="M474.791 53.4934C474.791 68.0797 469.929 74.2868 459.718 74.2868C449.508 74.2868 444.759 68.0903 444.759 53.4934V39.0314C444.759 24.445 449.497 18.2381 459.718 18.2381C469.929 18.2381 474.791 24.4347 474.791 39.0314V53.4934ZM495.697 53.4934V39.0314C495.697 10.8208 479.767 0 459.708 0C439.649 0 423.718 10.8208 423.718 39.0314V53.504C423.718 81.7147 439.649 92.5355 459.708 92.5355C479.777 92.5248 495.697 81.704 495.697 53.4934Z" fill="#041B44"/>
<path d="M568.776 30.3933C568.776 38.6589 564.039 42.6728 553.215 42.6728C551.879 42.6728 544.703 42.5486 543.368 42.4349V17.6277C544.824 17.5036 551.511 17.2657 553.215 17.2657C563.424 17.2657 568.776 20.6691 568.776 29.2968V30.3933ZM589.442 30.3933V29.2968C589.442 6.44487 571.331 0 552.968 0C544.214 0 534.479 0.61035 528.285 1.58277C524.521 2.19312 522.813 3.27934 522.813 7.41731V89.1213C522.813 90.4558 523.906 91.4284 525.242 91.4284H540.924C542.26 91.4284 543.358 90.3319 543.358 88.9974V59.4523C546.397 59.5761 550.287 59.8142 553.205 59.8142C571.331 59.8248 589.442 53.1315 589.442 30.3933Z" fill="#041B44"/>
<path d="M405.727 15.9313V3.40359C405.727 2.0691 404.517 1.09668 403.171 1.09668H342.861C341.526 1.09668 340.43 2.0691 340.43 3.40359V15.9313C340.43 17.2658 341.526 18.2382 342.861 18.2382H403.171C404.517 18.2382 405.727 17.2658 405.727 15.9313Z" fill="#041B44"/>
<path d="M383.475 88.9974V76.604V52.0243V39.6313C383.475 38.2967 382.378 37.2002 381.044 37.2002H365.112C363.778 37.2002 362.681 38.2967 362.681 39.6313V52.0243V76.604V88.9974C362.681 90.3319 363.778 91.4283 365.112 91.4283H381.044C382.388 91.4385 383.475 90.3421 383.475 88.9974Z" fill="#041B44"/>
<path d="M267.87 139.326C265.843 139.326 263.05 139.026 261.177 138.519C260.732 138.405 260.474 138.115 260.474 137.67V134.691C260.474 134.319 260.732 133.988 261.177 133.988C261.218 133.988 261.291 133.988 261.322 133.988C263.308 134.246 266.391 134.505 267.57 134.505C269.339 134.505 269.743 134.029 269.743 133.067C269.743 132.519 269.412 132.115 268.377 131.526L263.598 128.763C261.539 127.584 260.329 125.711 260.329 123.322C260.329 119.608 262.791 117.622 267.86 117.622C270.767 117.622 272.525 117.994 274.398 118.47C274.843 118.584 275.091 118.874 275.091 119.319V122.298C275.091 122.743 274.832 122.991 274.47 122.991C274.429 122.991 274.398 122.991 274.356 122.991C273.291 122.846 270.125 122.515 268.253 122.515C266.815 122.515 266.308 122.732 266.308 123.58C266.308 124.129 266.712 124.429 267.446 124.863L272.008 127.47C275.06 129.229 275.722 131.143 275.722 133.129C275.732 136.605 273.229 139.326 267.87 139.326Z" fill="#041B44"/>
<path d="M291.312 139.325C285.353 139.325 282.084 135.612 282.084 129.766V127.191C282.084 121.346 285.353 117.632 291.312 117.632C297.271 117.632 300.498 121.346 300.498 127.191V129.766C300.498 135.612 297.271 139.325 291.312 139.325ZM294.581 127.191C294.581 124.211 293.443 122.701 291.312 122.701C289.181 122.701 288.001 124.211 288.001 127.191V129.766C288.001 132.746 289.181 134.287 291.312 134.287C293.443 134.287 294.581 132.746 294.581 129.766V127.191Z" fill="#041B44"/>
<path d="M312.767 138.994H308.277C307.874 138.994 307.501 138.622 307.501 138.218V111.528C307.501 111.125 307.874 110.794 308.277 110.794H312.767C313.17 110.794 313.46 111.125 313.46 111.528V138.218C313.47 138.622 313.17 138.994 312.767 138.994Z" fill="#041B44"/>
<path d="M336.583 138.994H332.465C332.062 138.994 331.731 138.663 331.731 138.26V137.67C330.303 138.694 328.824 139.325 326.62 139.325C323.424 139.325 320.331 137.784 320.331 133.004V132.673C320.331 128.37 323.093 126.456 329.372 126.456H331.358V125.132C331.358 123.032 330.324 122.597 328.596 122.597C326.248 122.597 323.631 122.742 322.493 122.856H322.306C321.945 122.856 321.645 122.67 321.645 122.194V119.215C321.645 118.811 321.903 118.511 322.348 118.408C323.703 118.077 326.279 117.632 328.71 117.632C334.006 117.632 337.306 119.763 337.306 125.132V138.26C337.317 138.663 336.986 138.994 336.583 138.994ZM331.472 129.984H329.372C326.796 129.984 326.134 130.863 326.134 132.673V133.004C326.134 134.546 326.91 134.846 328.452 134.846C329.558 134.846 330.583 134.473 331.462 134.039V129.984H331.472Z" fill="#041B44"/>
<path d="M355.906 122.557H355.617C353.817 122.557 352.234 123.105 350.879 123.839V138.208C350.879 138.612 350.548 138.984 350.144 138.984H345.696C345.293 138.984 344.93 138.612 344.93 138.208V118.657C344.93 118.253 345.262 117.922 345.665 117.922H350.041C350.444 117.922 350.775 118.253 350.775 118.657V119.391C352.131 118.253 353.972 117.622 355.741 117.622C356.144 117.622 356.475 117.953 356.475 118.357V121.853C356.455 122.194 356.237 122.557 355.906 122.557Z" fill="#041B44"/>
<path d="M383.653 139.326C382.918 139.326 381.707 139.212 380.642 139.067V145.429C380.642 145.833 380.311 146.164 379.907 146.164H375.459C375.056 146.164 374.684 145.833 374.684 145.429V119.66C374.684 119.07 374.828 118.812 375.821 118.594C377.911 118.077 380.818 117.643 383.653 117.643C389.611 117.643 392.88 121.098 392.88 127.057V129.922C392.88 135.684 389.859 139.326 383.653 139.326ZM386.922 127.046C386.922 124.44 386.259 122.557 383.653 122.557C382.442 122.557 381.335 122.629 380.642 122.743V134.215C381.522 134.329 382.773 134.432 383.653 134.432C386.259 134.432 386.922 132.488 386.922 129.912V127.046Z" fill="#041B44"/>
<path d="M414.592 138.994H410.475C410.072 138.994 409.74 138.663 409.74 138.26V137.67C408.303 138.694 406.834 139.325 404.63 139.325C401.434 139.325 398.34 137.784 398.34 133.004V132.673C398.34 128.37 401.092 126.456 407.382 126.456H409.368V125.132C409.368 123.032 408.334 122.597 406.606 122.597C404.258 122.597 401.64 122.742 400.503 122.856H400.317C399.944 122.856 399.654 122.67 399.654 122.194V119.215C399.654 118.811 399.913 118.511 400.348 118.408C401.713 118.077 404.279 117.632 406.709 117.632C412.006 117.632 415.306 119.763 415.306 125.132V138.26C415.327 138.663 414.996 138.994 414.592 138.994ZM409.482 129.984H407.392C404.817 129.984 404.155 130.863 404.155 132.673V133.004C404.155 134.546 404.93 134.846 406.472 134.846C407.579 134.846 408.603 134.473 409.482 134.039V129.984Z" fill="#041B44"/>
<path d="M433.918 122.557H433.628C431.828 122.557 430.245 123.105 428.89 123.839V138.208C428.89 138.612 428.559 138.984 428.155 138.984H423.707C423.303 138.984 422.931 138.612 422.931 138.208V118.657C422.931 118.253 423.262 117.922 423.666 117.922H428.041C428.445 117.922 428.776 118.253 428.776 118.657V119.391C430.131 118.253 431.972 117.622 433.731 117.622C434.135 117.622 434.466 117.953 434.466 118.357V121.853C434.466 122.194 434.249 122.557 433.918 122.557Z" fill="#041B44"/>
<path d="M458.827 118.698L451.989 127.998L458.786 138.219C458.858 138.291 458.858 138.405 458.858 138.509C458.858 138.767 458.672 138.984 458.382 138.984H452.827C452.424 138.984 452.196 138.912 451.906 138.467L446.61 129.829V138.209C446.61 138.612 446.279 138.984 445.875 138.984H441.427C441.023 138.984 440.651 138.612 440.651 138.209V111.519C440.651 111.115 441.023 110.784 441.427 110.784H445.875C446.279 110.784 446.61 111.115 446.61 111.519V126.881L452.196 118.46C452.486 118.015 452.858 117.912 453.148 117.912H458.403C458.734 117.912 458.951 118.098 458.951 118.315C458.982 118.439 458.941 118.553 458.827 118.698Z" fill="#041B44"/>
<path d="M470.994 115.542H466.214C465.811 115.542 465.48 115.211 465.48 114.807V111.394C465.48 110.99 465.811 110.659 466.214 110.659H470.994C471.397 110.659 471.728 110.99 471.728 111.394V114.807C471.728 115.211 471.397 115.542 470.994 115.542ZM470.839 138.994H466.359C465.956 138.994 465.625 138.663 465.625 138.26V118.666C465.625 118.263 465.956 117.932 466.359 117.932H470.839C471.242 117.932 471.573 118.263 471.573 118.666V138.26C471.573 138.663 471.253 138.994 470.839 138.994Z" fill="#041B44"/>
<path d="M496.636 138.994H492.189C491.787 138.994 491.453 138.622 491.453 138.218V125.98C491.453 123.404 490.979 122.556 488.734 122.556C487.669 122.556 486.532 123.073 485.279 123.735V138.218C485.279 138.622 484.95 138.994 484.544 138.994H480.096C479.693 138.994 479.321 138.622 479.321 138.218V118.666C479.321 118.263 479.652 117.932 480.055 117.932H484.171C484.577 117.932 484.906 118.263 484.906 118.666V119.546C486.924 118.108 488.55 117.632 490.897 117.632C496.224 117.632 497.405 121.346 497.405 125.98V138.218C497.415 138.622 497.052 138.994 496.636 138.994Z" fill="#041B44"/>
<path d="M523.36 121.791L522.223 122.163C522.668 122.825 523.031 124.004 523.031 124.884V125.173C523.031 129.953 519.687 132.042 513.944 132.042C512.216 132.042 510.861 131.784 510.131 131.494C509.724 131.753 509.613 132.011 509.613 132.342C509.613 132.932 509.84 133.191 510.716 133.377L514.877 134.298C521.269 135.694 523.486 136.687 523.486 140.215V140.504C523.486 144.549 520.316 146.494 513.852 146.494C507.75 146.494 504.513 144.363 504.513 140.504V140.215C504.513 138.704 505.132 137.308 506.715 136.098C505.389 135.363 504.842 133.894 504.842 132.684C504.842 131.318 505.544 130.294 506.468 129.56C505.287 128.525 504.779 126.653 504.779 125.184V124.894C504.779 120.745 507.532 117.942 513.968 117.942H523.123C523.64 117.942 524.042 118.387 524.042 118.894V120.994C524.023 121.491 523.805 121.645 523.36 121.791ZM517.403 140.204C517.403 139.501 516.924 139.025 513.615 138.291L510.895 137.701C510.45 138.332 510.16 138.911 510.16 140.204V140.494C510.16 141.746 511.007 142.367 513.832 142.367C516.842 142.367 517.403 141.591 517.403 140.494V140.204ZM517.215 124.873C517.215 123.363 516.552 122.225 513.944 122.225C511.34 122.225 510.605 123.363 510.605 124.873V125.173C510.605 126.425 511.152 127.749 513.944 127.749C516.523 127.749 517.215 126.756 517.215 125.173V124.873Z" fill="#041B44"/>
</mask>
<g mask="url(#mask0_501_86)">
<rect x="-10" width="618" height="150" fill="white"/>
</g>
</svg>
