<svg width="25" height="24" viewBox="0 0 25 24" fill="none" xmlns="http://www.w3.org/2000/svg">
<path d="M21.3909 8.2446C21.3375 8.12521 21.2629 8.01608 21.1704 7.9223L14.4204 1.3223C14.3245 1.23186 14.2128 1.15885 14.0907 1.1067C14.057 1.0913 14.021 1.0825 13.985 1.0704C13.8909 1.03908 13.7929 1.02021 13.6936 1.0143C13.67 1.0121 13.6486 1 13.625 1H5.75C4.50912 1 3.5 1.9867 3.5 3.2V20.8C3.5 22.0133 4.50912 23 5.75 23H19.25C20.4909 23 21.5 22.0133 21.5 20.8V8.7C21.5 8.6769 21.4876 8.656 21.4854 8.6318C21.4799 8.53469 21.4606 8.4388 21.428 8.3469C21.4168 8.3117 21.4066 8.2776 21.3909 8.2446ZM17.6593 7.6H14.75V4.7554L17.6593 7.6ZM5.75 20.8V3.2H12.5V8.7C12.5 8.99174 12.6185 9.27153 12.8295 9.47782C13.0405 9.68411 13.3266 9.8 13.625 9.8H19.25L19.2523 20.8H5.75Z" fill="black"/>
<path d="M7.5 11.4H17.5V13.6H7.5V11.4ZM7.5 15.8H17.5V18H7.5V15.8ZM7.5 6H10.75V9.2H7.5V6Z" fill="black"/>
</svg>
