<svg width="280" height="177" viewBox="0 0 280 177" fill="none" xmlns="http://www.w3.org/2000/svg">
<g clip-path="url(#clip0_1386_8039)">
<path opacity="0.8" d="M272.81 136.167C279.927 121.22 280.978 104.145 279.309 87.6604C277.83 73.0409 275.595 56.2708 269.345 43.0736C253.514 9.64387 213.497 -6.04714 181.003 4.00807C167.452 8.20251 157.944 17.9184 147.064 27.169C139.018 34.0059 121.5 36.0002 108 33.0002C82 31.0002 66.5637 18.6657 42.9547 21.007C19.3457 23.3406 0.890119 47.1917 0.0305671 67.7712C-0.828985 88.3506 17.2025 109.395 15.4834 123.428C13.7681 137.46 2.6054 174.874 46.8207 176.278C91.0361 177.681 114.217 149.62 131.385 155.698C148.557 161.776 186.332 179.549 218.097 174.874C238.822 171.824 259.08 160.278 270.442 140.667C271.297 139.191 272.084 137.689 272.81 136.167Z" fill="white"/>
<path d="M42.2279 50.3341C53.0578 40.4438 67.4389 35 82.7187 35C83.1088 35 83.4988 35.0034 83.8855 35.0102C97.9986 35.2679 111.932 40.8508 122.141 50.6292C129.162 57.3551 134.175 66.0583 139.615 74.0391C149.496 58.6236 160.4 45.9486 176.348 39.6128C192.296 33.277 210.958 33.6229 226.275 41.3595C241.592 49.0961 253.11 64.3251 255.522 81.3145C258.015 98.8566 250.59 117.315 237.112 128.816C213.851 148.661 176.881 145.358 155.798 123.99C154.4 122.572 153.115 121.09 151.928 119.489C146.24 111.827 140.711 104.046 135.352 96.1534C131.516 90.5027 127.761 84.7978 124.095 79.0352C117.406 68.5241 110.389 57.8401 98.2225 53.1222C93.569 51.3178 88.5966 50.3613 83.604 50.2697C83.3089 50.2629 83.0138 50.2629 82.7187 50.2629C71.2546 50.2629 60.5299 54.2923 52.5185 61.605C44.6869 68.7582 40.3319 78.2788 40.2641 88.4168C40.1963 98.5276 44.4902 108.072 52.3557 115.286C60.3908 122.653 71.2241 126.835 82.8646 127.059C97.3236 127.33 107.323 120.849 114.957 112.956L111.074 109.344L132.778 103.079L130.017 126.974L126.13 123.359C117.098 132.717 103.89 142.336 83.6413 142.336C83.2885 142.336 82.929 142.336 82.5729 142.325C67.215 142.03 52.8204 136.424 42.0414 126.54C30.9537 116.372 24.9028 102.798 25.0012 88.3184C25.0995 73.8797 31.2183 60.3941 42.2279 50.3409V50.3341ZM165.094 111.159C174.093 121.422 184.193 127.056 198.652 127.056C198.808 127.056 198.968 127.056 199.127 127.056C222.117 126.832 240.951 109.731 241.11 88.9324C241.185 79.354 237.329 70.1556 230.257 63.0295C222.205 54.9164 210.686 50.2629 198.656 50.2629C187.327 50.2629 176.029 54.2041 168.34 61.7881C160.997 69.0329 154.526 79.1471 149.082 88.661C149.082 88.661 162.785 108.527 165.091 111.159H165.094Z" fill="#D47172" stroke="#263238" stroke-width="0.5" stroke-linecap="round" stroke-linejoin="round"/>
<path d="M139.615 74.0391L121.093 104.884L134.535 100.237L133.205 116.68L149.085 88.6609" fill="#D47172"/>
<path d="M139.615 74.0391L121.093 104.884L134.535 100.237L133.205 116.68L149.085 88.6609" stroke="#263238" stroke-width="0.5" stroke-linecap="round" stroke-linejoin="round"/>
</g>
<defs>
<clipPath id="clip0_1386_8039">
<rect width="280" height="175.654" fill="white" transform="translate(0 0.672852)"/>
</clipPath>
</defs>
</svg>
