<svg width="319" height="282" viewBox="0 0 319 282" fill="none" xmlns="http://www.w3.org/2000/svg">
<path d="M44.5136 176.121C35.8748 176.121 28.8721 169.118 28.8721 160.48V117.251C28.8721 108.612 35.8748 101.609 44.5136 101.609C53.1524 101.609 60.1552 108.612 60.1552 117.251V160.48C60.1543 169.117 53.1516 176.121 44.5136 176.121Z" stroke="black" stroke-width="0.25" stroke-miterlimit="10"/>
<mask id="mask0_1315_6831" style="mask-type:luminance" maskUnits="userSpaceOnUse" x="28" y="101" width="33" height="76">
<path d="M44.5136 176.121C35.8748 176.121 28.8721 169.118 28.8721 160.48V117.251C28.8721 108.612 35.8748 101.609 44.5136 101.609C53.1524 101.609 60.1552 108.612 60.1552 117.251V160.48C60.1543 169.117 53.1516 176.121 44.5136 176.121Z" fill="white"/>
</mask>
<g mask="url(#mask0_1315_6831)">
<path d="M70.5603 99.7236L14.4736 126.674" stroke="black" stroke-width="0.25" stroke-miterlimit="10"/>
<path d="M70.5603 109.193L14.4736 136.144" stroke="black" stroke-width="0.25" stroke-miterlimit="10"/>
<path d="M70.5603 118.662L14.4736 145.612" stroke="black" stroke-width="0.25" stroke-miterlimit="10"/>
<path d="M70.5603 128.131L14.4736 155.082" stroke="black" stroke-width="0.25" stroke-miterlimit="10"/>
<path d="M70.5603 137.601L14.4736 164.551" stroke="black" stroke-width="0.25" stroke-miterlimit="10"/>
<path d="M70.5603 147.07L14.4736 174.02" stroke="black" stroke-width="0.25" stroke-miterlimit="10"/>
<path d="M70.5603 156.538L14.4736 183.489" stroke="black" stroke-width="0.25" stroke-miterlimit="10"/>
</g>
<path d="M291.065 39.3677H47.1872V231.598H291.065V39.3677Z" fill="white"/>
<path d="M291.065 26.3489H47.1872V40.4808H291.065V26.3489Z" fill="#707EA5"/>
<path d="M91.6779 57.8472H66.4268V83.2018H91.6779V57.8472Z" fill="#707EA5"/>
<path d="M121.881 57.8472H96.6298V83.2018H121.881V57.8472Z" fill="#D47172" stroke="black" stroke-width="0.5" stroke-miterlimit="10"/>
<path d="M152.083 57.8472H126.832V83.2018H152.083V57.8472Z" fill="#707EA5"/>
<path d="M182.286 57.8472H157.035V83.2018H182.286V57.8472Z" fill="#707EA5"/>
<path d="M212.489 57.8472H187.237V83.2018H212.489V57.8472Z" fill="#707EA5"/>
<path d="M242.692 57.8472H217.44V83.2018H242.692V57.8472Z" fill="#D47172" stroke="black" stroke-width="0.5" stroke-miterlimit="10"/>
<path d="M271.904 57.8472H246.653V83.2018H271.904V57.8472Z" fill="#707EA5"/>
<path d="M91.678 88.4221H66.4268V113.777H91.678V88.4221Z" fill="#D47172" stroke="black" stroke-width="0.5" stroke-miterlimit="10"/>
<path d="M121.881 88.4221H96.6299V113.777H121.881V88.4221Z" fill="#707EA5"/>
<path d="M152.083 88.4221H126.832V113.777H152.083V88.4221Z" fill="#707EA5"/>
<path d="M182.286 88.4221H157.035V113.777H182.286V88.4221Z" fill="#D47172" stroke="black" stroke-width="0.5" stroke-miterlimit="10"/>
<path d="M212.489 88.4221H187.237V113.777H212.489V88.4221Z" fill="#707EA5"/>
<path d="M242.692 88.4221H217.441V113.777H242.692V88.4221Z" fill="#707EA5"/>
<path d="M271.904 88.4221H246.653V113.777H271.904V88.4221Z" fill="#D47172" stroke="black" stroke-width="0.5" stroke-miterlimit="10"/>
<path d="M91.678 118.997H66.4268V144.351H91.678V118.997Z" fill="#707EA5"/>
<path d="M121.881 118.997H96.6299V144.351H121.881V118.997Z" fill="#707EA5"/>
<path d="M152.083 118.997H126.832V144.351H152.083V118.997Z" fill="#707EA5"/>
<path d="M182.286 118.997H157.035V144.351H182.286V118.997Z" fill="#707EA5"/>
<path d="M212.489 118.997H187.237V144.351H212.489V118.997Z" fill="#D47172" stroke="black" stroke-width="0.5" stroke-miterlimit="10"/>
<path d="M242.692 118.997H217.441V144.351H242.692V118.997Z" fill="#707EA5"/>
<path d="M271.904 118.997H246.653V144.351H271.904V118.997Z" fill="#707EA5"/>
<path d="M91.678 149.572H66.4268V174.927H91.678V149.572Z" fill="#707EA5"/>
<path d="M121.881 149.572H96.6299V174.927H121.881V149.572Z" fill="#707EA5"/>
<path d="M152.083 149.572H126.832V174.927H152.083V149.572Z" fill="#707EA5"/>
<path d="M182.286 149.572H157.035V174.927H182.286V149.572Z" fill="#D47172" stroke="black" stroke-width="0.5" stroke-miterlimit="10"/>
<path d="M212.489 149.572H187.237V174.927H212.489V149.572Z" fill="#707EA5"/>
<path d="M242.692 149.572H217.441V174.927H242.692V149.572Z" fill="#D47172" stroke="black" stroke-width="0.5" stroke-miterlimit="10"/>
<path d="M271.904 149.572H246.653V174.927H271.904V149.572Z" fill="#707EA5"/>
<path d="M91.678 180.147H66.4268V205.502H91.678V180.147Z" fill="#707EA5"/>
<path d="M121.881 180.147H96.6299V205.502H121.881V180.147Z" fill="#707EA5"/>
<path d="M152.083 180.147H126.832V205.502H152.083V180.147Z" fill="#707EA5"/>
<path d="M182.286 180.147H157.035V205.502H182.286V180.147Z" fill="#D47172" stroke="black" stroke-width="0.5" stroke-miterlimit="10"/>
<path d="M257.974 101.119L311.22 100.814" stroke="#222221" stroke-width="0.5" stroke-miterlimit="10"/>
<path d="M260.422 100.966C260.422 102.149 259.464 103.108 258.28 103.108C257.097 103.108 256.138 102.15 256.138 100.966C256.138 99.7834 257.096 98.824 258.28 98.824C259.464 98.8248 260.422 99.7834 260.422 100.966Z" fill="black"/>
<path d="M20.5895 75.1313L79.0523 99.8469" stroke="#222221" stroke-width="0.5" stroke-miterlimit="10"/>
<path d="M79.2202 99.8111C79.2202 101.226 78.0725 102.374 76.6575 102.374C75.2424 102.374 74.0947 101.226 74.0947 99.8111C74.0947 98.396 75.2424 97.2483 76.6575 97.2483C78.0725 97.2483 79.2202 98.3952 79.2202 99.8111Z" fill="#222221"/>
<path d="M207.649 46.9972L202.995 44.5021L198.302 46.9214L199.237 41.725L195.486 38.0088L200.716 37.2915L203.092 32.5759L205.389 37.3298L210.609 38.131L206.798 41.7861L207.649 46.9972Z" fill="black"/>
<path d="M230.066 70.525L257.097 40.1736" stroke="#222221" stroke-width="0.5" stroke-miterlimit="10"/>
<path d="M109.255 70.5249L135.384 31.4744" stroke="#222221" stroke-width="0.5" stroke-miterlimit="10"/>
<path d="M199.863 131.674V96.1804" stroke="#222221" stroke-width="0.5" stroke-miterlimit="10"/>
<path d="M164.411 195.754L156.74 258.693" stroke="#222221" stroke-width="0.5" stroke-miterlimit="10"/>
<path d="M170.684 219.721H110.055V275.199H170.684V219.721Z" fill="#223361" stroke="black" stroke-width="0.5" stroke-miterlimit="10"/>
<path d="M165.177 225.522H104.549V281H165.177V225.522Z" fill="#FAFAFA" stroke="#222221" stroke-width="0.5" stroke-miterlimit="10"/>
<path d="M138.287 232.825H111.522V242.796H138.287V232.825Z" fill="#707EA5"/>
<path d="M143.966 241.114H158.565" stroke="#222221" stroke-width="0.5" stroke-miterlimit="10"/>
<path d="M143.966 237.476H158.565" stroke="#222221" stroke-width="0.5" stroke-miterlimit="10"/>
<path d="M143.966 233.837H158.565" stroke="#222221" stroke-width="0.5" stroke-miterlimit="10"/>
<path d="M112.091 245.714H158.565" stroke="#222221" stroke-width="0.5" stroke-miterlimit="10"/>
<path d="M112.091 250.312H158.565" stroke="#222221" stroke-width="0.5" stroke-miterlimit="10"/>
<path d="M112.091 254.912H158.565" stroke="#222221" stroke-width="0.5" stroke-miterlimit="10"/>
<path d="M112.091 259.512H158.565" stroke="#222221" stroke-width="0.5" stroke-miterlimit="10"/>
<path d="M112.091 264.111H158.565" stroke="#222221" stroke-width="0.5" stroke-miterlimit="10"/>
<path d="M112.091 268.71H158.565" stroke="#222221" stroke-width="0.5" stroke-miterlimit="10"/>
<path d="M112.091 273.309H158.565" stroke="#222221" stroke-width="0.5" stroke-miterlimit="10"/>
<path d="M230.066 72.7707C231.306 72.7707 232.312 71.7652 232.312 70.525C232.312 69.2847 231.306 68.2793 230.066 68.2793C228.826 68.2793 227.82 69.2847 227.82 70.525C227.82 71.7652 228.826 72.7707 230.066 72.7707Z" fill="#110809"/>
<path d="M109.255 72.7707C110.496 72.7707 111.501 71.7652 111.501 70.525C111.501 69.2847 110.496 68.2793 109.255 68.2793C108.015 68.2793 107.01 69.2847 107.01 70.525C107.01 71.7652 108.015 72.7707 109.255 72.7707Z" fill="#110809"/>
<path d="M199.863 133.92C201.103 133.92 202.109 132.915 202.109 131.674C202.109 130.434 201.103 129.429 199.863 129.429C198.623 129.429 197.617 130.434 197.617 131.674C197.617 132.915 198.623 133.92 199.863 133.92Z" fill="#110809"/>
<path d="M174.617 5.22388H128.365V34.3338H174.617V5.22388Z" fill="black"/>
<path d="M169.314 1H123.063V30.11H169.314V1Z" fill="url(#paint0_linear_1315_6831)" stroke="black" stroke-width="0.5" stroke-miterlimit="10"/>
<path d="M169.315 1C169.315 1 147.876 14.1782 146.189 15.555L123.064 1" stroke="black" stroke-width="0.5" stroke-miterlimit="10"/>
<path d="M164.57 197.76C166.064 197.76 167.275 196.549 167.275 195.055C167.275 193.561 166.064 192.351 164.57 192.351C163.076 192.351 161.866 193.561 161.866 195.055C161.866 196.549 163.076 197.76 164.57 197.76Z" fill="#110809"/>
<path d="M224.314 66.375H166.413V110.191H224.314V66.375Z" fill="#FAFAFA" stroke="#222221" stroke-width="0.5" stroke-miterlimit="10"/>
<path d="M172.545 74.7351H216.732" stroke="black" stroke-width="0.5" stroke-miterlimit="10"/>
<path d="M172.545 80.4124H216.732" stroke="black" stroke-width="0.5" stroke-miterlimit="10"/>
<path d="M172.545 86.0898H216.732" stroke="black" stroke-width="0.5" stroke-miterlimit="10"/>
<path d="M172.545 91.7673H216.732" stroke="black" stroke-width="0.5" stroke-miterlimit="10"/>
<path d="M0.838898 72.6704V67.2506C9.87544 67.2506 17.201 59.925 17.201 50.8884H23.3716C23.3716 59.925 30.6971 67.2506 39.7337 67.2506V72.6704C30.6971 72.6704 23.3716 79.9959 23.3716 89.0325H17.201C17.201 79.9959 9.87544 72.6704 0.838898 72.6704Z" fill="#FAFAFA" stroke="black" stroke-width="0.5" stroke-miterlimit="10"/>
<path d="M4.22903 70.9701V68.951C12.4667 68.951 19.1451 62.2726 19.1451 54.0349H21.4267C21.4267 62.2734 28.105 68.951 36.3427 68.951V70.9709C28.105 70.9709 21.4267 77.6493 21.4267 85.887H19.1451C19.1459 77.6484 12.4676 70.9701 4.22903 70.9701Z" fill="url(#paint1_linear_1315_6831)" stroke="black" stroke-width="0.5" stroke-miterlimit="10"/>
<path d="M10.887 69.9598C16.0778 69.9598 20.2863 65.7521 20.2863 60.5605C20.2863 65.7513 24.494 69.9598 29.6856 69.9598C24.4948 69.9598 20.2863 74.1675 20.2863 79.3591C20.2863 74.1683 16.0786 69.9598 10.887 69.9598Z" fill="black"/>
<path d="M265.619 7.19507H248.574V25.7002H265.619V7.19507Z" fill="#FAFAFA" stroke="#222221" stroke-width="0.5" stroke-miterlimit="10"/>
<path d="M291.268 7.19507H274.224V25.7002H291.268V7.19507Z" fill="#223361" stroke="black" stroke-width="0.5" stroke-miterlimit="10"/>
<path d="M316.918 7.19507H299.874V25.7002H316.918V7.19507Z" fill="#FAFAFA" stroke="#222221" stroke-width="0.5" stroke-miterlimit="10"/>
<path d="M265.619 30.9211H248.574V49.4263H265.619V30.9211Z" fill="#FAFAFA" stroke="#222221" stroke-width="0.5" stroke-miterlimit="10"/>
<path d="M291.268 30.9211H274.224V49.4263H291.268V30.9211Z" fill="#FAFAFA" stroke="#222221" stroke-width="0.5" stroke-miterlimit="10"/>
<path d="M316.918 30.9211H299.874V49.4263H316.918V30.9211Z" fill="#223361" stroke="black" stroke-width="0.5" stroke-miterlimit="10"/>
<path d="M251.318 14.4935L258.141 19.8873L268.295 2.4353" stroke="black" stroke-width="4" stroke-miterlimit="10"/>
<path d="M300.185 14.4935L307.007 19.8873L317.161 2.4353" stroke="black" stroke-width="4" stroke-miterlimit="10"/>
<path d="M275.752 38.6092L282.573 44.0037L292.727 26.5518" stroke="black" stroke-width="4" stroke-miterlimit="10"/>
<path d="M300.185 38.6092L307.007 44.0037L317.161 26.5518" stroke="#FAFAFA" stroke-width="4" stroke-miterlimit="10"/>
<path d="M171.986 163.213L201.056 197.819" stroke="#222221" stroke-width="0.5" stroke-miterlimit="10"/>
<path d="M220.697 210.66C211.981 210.66 204.916 202.297 204.916 202.297C204.916 202.297 211.981 193.935 220.697 193.935C229.412 193.935 236.477 202.297 236.477 202.297C236.477 202.297 229.412 210.66 220.697 210.66Z" fill="#FAFAFA" stroke="black" stroke-width="0.5" stroke-miterlimit="10"/>
<path d="M220.641 210.681C216.854 210.681 213.783 206.932 213.783 202.308C213.783 197.684 216.854 193.936 220.641 193.936C224.429 193.936 227.5 197.685 227.5 202.308C227.499 206.932 224.429 210.681 220.641 210.681Z" fill="url(#paint2_linear_1315_6831)" stroke="black" stroke-width="0.5" stroke-miterlimit="10"/>
<path d="M220.641 208.946C217.911 208.946 215.698 205.974 215.698 202.308C215.698 198.642 217.911 195.671 220.641 195.671C223.371 195.671 225.585 198.642 225.585 202.308C225.584 205.974 223.371 208.946 220.641 208.946Z" fill="black"/>
<path d="M171.985 166.033C173.543 166.033 174.806 164.77 174.806 163.213C174.806 161.655 173.543 160.392 171.985 160.392C170.428 160.392 169.165 161.655 169.165 163.213C169.165 164.77 170.428 166.033 171.985 166.033Z" fill="#110809"/>
<path d="M231.889 203.177C232.427 202.72 232.965 202.264 233.502 201.807" stroke="#222221" stroke-width="0.5" stroke-miterlimit="10"/>
<defs>
<linearGradient id="paint0_linear_1315_6831" x1="166.84" y1="22.696" x2="143.256" y2="22.9063" gradientUnits="userSpaceOnUse">
<stop stop-color="#D6545B"/>
<stop offset="1" stop-color="#FC946D"/>
</linearGradient>
<linearGradient id="paint1_linear_1315_6831" x1="34.6249" y1="77.7746" x2="18.2488" y2="77.8673" gradientUnits="userSpaceOnUse">
<stop stop-color="#D6545B"/>
<stop offset="1" stop-color="#FC946D"/>
</linearGradient>
<linearGradient id="paint2_linear_1315_6831" x1="226.766" y1="206.416" x2="219.771" y2="206.448" gradientUnits="userSpaceOnUse">
<stop stop-color="#D6545B"/>
<stop offset="1" stop-color="#FC946D"/>
</linearGradient>
</defs>
</svg>
