<svg width="280" height="280" viewBox="0 0 280 280" fill="none" xmlns="http://www.w3.org/2000/svg">
<path opacity="0.8" d="M260.814 211.338C276.389 177.911 277.437 133.373 266.685 97.6656C257.429 66.9222 236.83 43.4744 213.038 29.5114C185.433 13.3106 152.529 8.48897 122.906 18.7135C115.112 21.4037 107.526 23.8671 100.18 28.285C70.061 46.3959 75.8727 91.0257 65.3055 106.551C56.415 119.612 39.415 115.76 28.6972 125.769C-0.222881 152.777 -0.299042 221.046 33.0725 242.386C68.4751 265.025 222.239 294.132 260.814 211.338Z" fill="white"/>
<path d="M75.053 77.2988H41.1993V266.336H75.053V77.2988Z" fill="#353E54" stroke="#353E54" stroke-width="0.5" stroke-miterlimit="10" stroke-linecap="round" stroke-linejoin="round"/>
<path d="M76.7296 77.2988H42.8759V266.336H76.7296V77.2988Z" fill="#707EA5" stroke="#353E54" stroke-width="0.5" stroke-miterlimit="10" stroke-linecap="round" stroke-linejoin="round"/>
<path d="M153.669 76.1704H32.8962V87.5507H153.669V76.1704Z" fill="#353E54" stroke="#353E54" stroke-width="0.5" stroke-miterlimit="10" stroke-linecap="round" stroke-linejoin="round"/>
<path d="M153.668 76.1704H76.77V87.5507H153.668V76.1704Z" fill="white" stroke="#353E54" stroke-width="0.5" stroke-miterlimit="10" stroke-linecap="round" stroke-linejoin="round"/>
<path d="M133.356 76.0669H99.5026V120.452H133.356V76.0669Z" fill="#353E54" stroke="#353E54" stroke-width="0.5" stroke-miterlimit="10" stroke-linecap="round" stroke-linejoin="round"/>
<path d="M135.032 76.0669H101.179V120.452H135.032V76.0669Z" fill="url(#paint0_linear_1315_6306)" stroke="#353E54" stroke-width="0.5" stroke-miterlimit="10" stroke-linecap="round" stroke-linejoin="round"/>
<path d="M223.632 209.327H102.86V220.708H223.632V209.327Z" fill="#353E54" stroke="#353E54" stroke-width="0.5" stroke-miterlimit="10" stroke-linecap="round" stroke-linejoin="round"/>
<path d="M223.632 209.327H146.734V220.708H223.632V209.327Z" fill="white" stroke="#353E54" stroke-width="0.5" stroke-miterlimit="10" stroke-linecap="round" stroke-linejoin="round"/>
<path d="M202.191 209.327H168.338V253.713H202.191V209.327Z" fill="#353E54" stroke="#353E54" stroke-width="0.5" stroke-miterlimit="10" stroke-linecap="round" stroke-linejoin="round"/>
<path d="M203.867 209.327H170.014V253.713H203.867V209.327Z" fill="url(#paint1_linear_1315_6306)" stroke="#353E54" stroke-width="0.5" stroke-miterlimit="10" stroke-linecap="round" stroke-linejoin="round"/>
<path d="M176.99 120.556H56.2174V131.936H176.99V120.556Z" fill="#353E54" stroke="#353E54" stroke-width="0.5" stroke-miterlimit="10" stroke-linecap="round" stroke-linejoin="round"/>
<path d="M176.989 120.556H100.091V131.936H176.989V120.556Z" fill="white" stroke="#353E54" stroke-width="0.5" stroke-miterlimit="10" stroke-linecap="round" stroke-linejoin="round"/>
<path d="M156.301 120.556H122.448V164.942H156.301V120.556Z" fill="#353E54" stroke="#353E54" stroke-width="0.5" stroke-miterlimit="10" stroke-linecap="round" stroke-linejoin="round"/>
<path d="M157.977 120.556H124.124V164.942H157.977V120.556Z" fill="url(#paint2_linear_1315_6306)" stroke="#353E54" stroke-width="0.5" stroke-miterlimit="10" stroke-linecap="round" stroke-linejoin="round"/>
<path d="M200.311 164.942H79.5386V176.322H200.311V164.942Z" fill="#353E54" stroke="#353E54" stroke-width="0.5" stroke-miterlimit="10" stroke-linecap="round" stroke-linejoin="round"/>
<path d="M200.31 164.942H123.412V176.322H200.31V164.942Z" fill="white" stroke="#353E54" stroke-width="0.5" stroke-miterlimit="10" stroke-linecap="round" stroke-linejoin="round"/>
<path d="M179.246 164.942H145.393V209.327H179.246V164.942Z" fill="#353E54" stroke="#353E54" stroke-width="0.5" stroke-miterlimit="10" stroke-linecap="round" stroke-linejoin="round"/>
<path d="M180.922 164.942H147.069V209.327H180.922V164.942Z" fill="url(#paint3_linear_1315_6306)" stroke="#353E54" stroke-width="0.5" stroke-miterlimit="10" stroke-linecap="round" stroke-linejoin="round"/>
<path d="M42.8755 264.701V266.336H191.267V264.701H42.8755Z" fill="#353E54" stroke="#353E54" stroke-width="0.5" stroke-miterlimit="10" stroke-linecap="round" stroke-linejoin="round"/>
<path d="M246.953 253.712H126.181V265.093H246.953V253.712Z" fill="#353E54" stroke="#353E54" stroke-width="0.5" stroke-miterlimit="10" stroke-linecap="round" stroke-linejoin="round"/>
<path d="M246.953 253.712H170.055V265.093H246.953V253.712Z" fill="white" stroke="#353E54" stroke-width="0.5" stroke-miterlimit="10" stroke-linecap="round" stroke-linejoin="round"/>
<path d="M225.137 253.712H191.283V266.336H225.137V253.712Z" fill="#353E54" stroke="#353E54" stroke-width="0.5" stroke-miterlimit="10" stroke-linecap="round" stroke-linejoin="round"/>
<path d="M226.813 253.712H192.959V266.336H226.813V253.712Z" fill="url(#paint4_linear_1315_6306)" stroke="#353E54" stroke-width="0.5" stroke-miterlimit="10" stroke-linecap="round" stroke-linejoin="round"/>
<path d="M161.052 74.9817V119.807H119.036" stroke="#353E54" stroke-width="0.5" stroke-miterlimit="10" stroke-linecap="round" stroke-linejoin="round"/>
<path d="M131.638 83.407V119.807" stroke="#353E54" stroke-width="0.5" stroke-miterlimit="10" stroke-linecap="round" stroke-linejoin="round"/>
<path d="M150.118 87.2361L160.607 99.7459H131.649L122.528 87.2361" stroke="#353E54" stroke-width="0.5" stroke-miterlimit="10" stroke-linecap="round" stroke-linejoin="round"/>
<path d="M117.968 91.3208H154.801L168.12 67.3225H131.288L117.968 91.3208Z" fill="#A1A1A1" stroke="#353E54" stroke-width="0.5" stroke-miterlimit="10" stroke-linecap="round" stroke-linejoin="round"/>
<path d="M133.232 70.2251L124.796 85.7981H152.113L160.822 69.9697L133.232 70.2251Z" fill="white" stroke="#353E54" stroke-width="0.5" stroke-miterlimit="10" stroke-linecap="round" stroke-linejoin="round"/>
<path d="M126.95 82.4727H142.303L139.997 85.6999" fill="white"/>
<path d="M126.95 82.4727H142.303L139.997 85.6999" stroke="#353E54" stroke-width="0.5" stroke-miterlimit="10" stroke-linecap="round" stroke-linejoin="round"/>
<path d="M117.968 91.3208L116.963 90.0742H153.279L154.801 91.3208H117.968Z" fill="white" stroke="#353E54" stroke-width="0.5" stroke-miterlimit="10" stroke-linecap="round" stroke-linejoin="round"/>
<defs>
<linearGradient id="paint0_linear_1315_6306" x1="133.221" y1="109.148" x2="115.958" y2="109.222" gradientUnits="userSpaceOnUse">
<stop stop-color="#D6545B"/>
<stop offset="1" stop-color="#FC946D"/>
</linearGradient>
<linearGradient id="paint1_linear_1315_6306" x1="202.056" y1="242.409" x2="184.793" y2="242.482" gradientUnits="userSpaceOnUse">
<stop stop-color="#D6545B"/>
<stop offset="1" stop-color="#FC946D"/>
</linearGradient>
<linearGradient id="paint2_linear_1315_6306" x1="156.166" y1="153.637" x2="138.903" y2="153.711" gradientUnits="userSpaceOnUse">
<stop stop-color="#D6545B"/>
<stop offset="1" stop-color="#FC946D"/>
</linearGradient>
<linearGradient id="paint3_linear_1315_6306" x1="179.111" y1="198.023" x2="161.848" y2="198.097" gradientUnits="userSpaceOnUse">
<stop stop-color="#D6545B"/>
<stop offset="1" stop-color="#FC946D"/>
</linearGradient>
<linearGradient id="paint4_linear_1315_6306" x1="225.002" y1="263.121" x2="207.742" y2="263.381" gradientUnits="userSpaceOnUse">
<stop stop-color="#D6545B"/>
<stop offset="1" stop-color="#FC946D"/>
</linearGradient>
</defs>
</svg>
