<svg width="460" height="151" viewBox="0 0 460 151" fill="none" xmlns="http://www.w3.org/2000/svg">
<mask id="mask0_501_52" style="mask-type:alpha" maskUnits="userSpaceOnUse" x="0" y="0" width="460" height="151">
<path d="M146.375 39.1812H161.281V94.4312H194.313V106.931H146.375V39.1812Z" fill="#007DC5"/>
<path d="M212.5 50.3062H199.156V39.1812H212.5V50.3062ZM199.031 57.8999H212.5V106.962H199.156L199.031 57.8999Z" fill="#007DC5"/>
<path d="M218.75 57.8685H231.562V64.7123H231.844C235.068 59.5359 240.778 56.4376 246.875 56.556C261.219 56.556 264.812 64.6185 264.812 76.7748V106.962H251.344V79.2435C251.344 71.181 249.063 67.181 242.688 67.181C235.406 67.181 232.25 71.2748 232.25 81.2435V106.962H218.75V57.8685Z" fill="#007DC5"/>
<path d="M307.188 100.712H307C303.821 105.809 298.085 108.73 292.094 108.306C277.281 108.306 270.219 95.8062 270.219 81.9937C270.219 68.8062 277.531 56.5562 292.094 56.5562C297.736 56.4834 303.044 59.2253 306.25 63.8687H306.437V39.1812H319.906V106.962H307.094L307.188 100.712ZM295.406 66.7124C286.594 66.7124 283.531 74.3999 283.531 82.3374C283.531 90.2749 287.062 98.1187 295.406 98.1187C304.25 98.1187 307 90.3062 307 82.2437C307 74.1812 304.156 66.7124 295.406 66.7124Z" fill="#007DC5"/>
<path d="M326.531 72.9624C327.281 60.4624 338.594 56.5562 349.594 56.5562C359.375 56.5562 371.156 58.7436 371.156 70.4936V96.0562C370.909 99.7742 371.496 103.501 372.875 106.962H359.188C358.684 105.423 358.369 103.828 358.25 102.212C353.831 106.476 347.853 108.736 341.719 108.462C332.344 108.462 325 103.806 325 93.7437C325.187 71.4312 358.25 83.3999 357.687 72.3687C357.687 66.6812 353.688 65.7124 348.938 65.7124C344.188 65.7124 340.5 67.8061 340 73.1186L326.531 72.9624ZM357.781 82.9312C355.5 84.9312 350.75 85.0249 346.563 85.8062C342.375 86.5874 338.594 88.0874 338.594 92.9937C338.594 97.8999 342.469 99.2437 346.844 99.2437C357.375 99.2437 357.781 90.9937 357.781 87.9312V82.9312Z" fill="#007DC5"/>
<path d="M378.344 39.1812H391.844V63.8687H392.031C395.671 58.9499 401.547 56.1998 407.656 56.5562C417.437 56.5562 427.969 64.4312 427.969 82.3687C427.969 100.306 417.437 108.306 407.656 108.306C400.437 108.306 394.469 106.119 391.5 100.712H391.313V106.962H378.5L378.344 39.1812ZM402.844 66.7124C394.875 66.7124 391.344 74.1187 391.344 82.3374C391.344 90.5562 394.875 97.9624 402.844 97.9624C410.813 97.9624 414.344 90.4624 414.344 82.3374C414.344 74.2124 410.813 66.7124 402.844 66.7124Z" fill="#007DC5"/>
<path d="M8.7188 73.1499C9.00338 41.3126 34.634 15.5155 66.4688 15.0249V5.6499C29.5927 6.44166 0.111938 36.5622 0.111938 73.4468C0.111938 110.331 29.5927 140.452 66.4688 141.244V131.556C34.5395 131.03 8.88441 105.083 8.7188 73.1499Z" fill="#007DC5"/>
<path d="M36.6875 73.1499C36.6765 89.7891 49.8406 103.45 66.4688 104.056V94.6812C54.973 94.2417 45.8803 84.7947 45.8803 73.2905C45.8803 61.7864 54.973 52.3394 66.4688 51.8999V42.5249C49.8997 43.0144 36.714 56.5736 36.6875 73.1499Z" fill="#007DC5"/>
<path d="M27.2812 73.1499C27.3781 51.4396 44.763 33.7635 66.4687 33.3062V23.9312C39.883 24.8772 18.8195 46.7036 18.8195 73.3062C18.8195 99.9087 39.883 121.735 66.4687 122.681V113.306C44.656 112.813 27.2417 94.9682 27.2812 73.1499Z" fill="#007DC5"/>
<path d="M125.75 73.1499C125.684 41.3066 100.06 15.4178 68.2188 15.0249V23.8999C95.4878 23.8999 117.594 46.0058 117.594 73.2749C117.594 100.544 95.4878 122.65 68.2188 122.65V131.556C100.148 131.111 125.787 105.082 125.75 73.1499Z" fill="#007DC5"/>
<path d="M98.2813 73.1499C98.271 89.8881 84.9503 103.583 68.2188 104.056V113.244C90.2929 113.244 108.187 95.349 108.187 73.2749C108.187 51.2008 90.2929 33.3062 68.2188 33.3062V42.4624C84.8799 42.9007 98.1858 56.4833 98.2813 73.1499Z" fill="#007DC5"/>
</mask>
<g mask="url(#mask0_501_52)">
<rect x="-18.7501" y="0.306152" width="456.25" height="159.375" fill="white"/>
</g>
</svg>
