<svg width="32" height="40" viewBox="0 0 32 40" fill="none" xmlns="http://www.w3.org/2000/svg">
<path d="M16 20.0012C17.1 20.0012 18.042 19.6092 18.826 18.8252C19.6087 18.0426 20 17.1012 20 16.0012C20 14.9012 19.6087 13.9592 18.826 13.1752C18.042 12.3926 17.1 12.0012 16 12.0012C14.9 12.0012 13.9587 12.3926 13.176 13.1752C12.392 13.9592 12 14.9012 12 16.0012C12 17.1012 12.392 18.0426 13.176 18.8252C13.9587 19.6092 14.9 20.0012 16 20.0012ZM16 34.7012C20.0667 30.9679 23.0833 27.5759 25.05 24.5252C27.0167 21.4759 28 18.7679 28 16.4012C28 12.7679 26.8413 9.79255 24.524 7.47522C22.208 5.15922 19.3667 4.00122 16 4.00122C12.6333 4.00122 9.79133 5.15922 7.474 7.47522C5.158 9.79255 4 12.7679 4 16.4012C4 18.7679 4.98333 21.4759 6.95 24.5252C8.91667 27.5759 11.9333 30.9679 16 34.7012ZM16 40.0012C10.6333 35.4346 6.62533 31.1926 3.976 27.2752C1.32533 23.3592 0 19.7346 0 16.4012C0 11.4012 1.60867 7.41789 4.826 4.45122C8.042 1.48455 11.7667 0.0012207 16 0.0012207C20.2333 0.0012207 23.958 1.48455 27.174 4.45122C30.3913 7.41789 32 11.4012 32 16.4012C32 19.7346 30.6753 23.3592 28.026 27.2752C25.3753 31.1926 21.3667 35.4346 16 40.0012Z" fill="url(#paint0_linear_3055_1942)"/>
<defs>
<linearGradient id="paint0_linear_3055_1942" x1="30.2882" y1="29.8137" x2="13.9699" y2="29.887" gradientUnits="userSpaceOnUse">
<stop stop-color="#D6545B"/>
<stop offset="1" stop-color="#FC946D"/>
</linearGradient>
</defs>
</svg>
