<svg width="1467" height="150" viewBox="0 0 1467 150" fill="none" xmlns="http://www.w3.org/2000/svg">
<mask id="mask0_501_36" style="mask-type:alpha" maskUnits="userSpaceOnUse" x="0" y="0" width="1467" height="150">
<g clip-path="url(#clip0_501_36)">
<path fill-rule="evenodd" clip-rule="evenodd" d="M236.685 142.52V6.94263C236.685 4.35137 238.788 2.24902 241.379 2.24902H275.799C278.39 2.24902 280.492 4.35137 280.492 6.94263V142.52C280.492 145.111 278.39 147.213 275.799 147.213H241.379C238.788 147.213 236.685 145.16 236.685 142.52Z" fill="#116541"/>
<path fill-rule="evenodd" clip-rule="evenodd" d="M1276.37 142.52V6.94263C1276.37 4.35137 1278.47 2.24902 1281.06 2.24902H1315.68C1318.27 2.24902 1320.37 4.35137 1320.37 6.94263V142.52C1320.37 145.111 1318.27 147.213 1315.68 147.213H1281.06C1278.47 147.213 1276.37 145.16 1276.37 142.52Z" fill="#116541"/>
<path fill-rule="evenodd" clip-rule="evenodd" d="M868.465 52.1675V45.6649C868.465 42.0958 865.531 39.1623 861.962 39.1623H786.278C783.686 39.1623 781.584 37.06 781.584 34.4687V6.94263C781.584 4.35137 783.686 2.24902 786.278 2.24902H870.323C893.546 2.24902 912.223 16.721 912.223 40.0424V42.8781C912.223 64.2438 900.489 74.8533 880.639 76.3201C900.489 77.3957 912.223 83.5072 912.223 104.971V142.52C912.223 145.111 910.12 147.213 907.529 147.213H873.158C870.567 147.213 868.465 145.111 868.465 142.52V99.2992C868.465 96.708 866.362 94.6056 863.771 94.6056H825.587V142.52C825.587 145.111 823.484 147.213 820.893 147.213H786.278C783.686 147.213 781.584 145.111 781.584 142.52V63.3638C781.584 60.7236 783.735 58.6213 786.326 58.6213H861.913C865.58 58.6213 868.465 55.7366 868.465 52.1675Z" fill="#116541"/>
<path fill-rule="evenodd" clip-rule="evenodd" d="M442.324 6.9427V34.4199C442.324 37.0111 440.222 39.1135 437.63 39.1135H379.351C359.257 39.1135 343.074 55.4434 343.074 75.489C343.074 94.8012 359.648 110.3 379.156 110.3H398.566V63.266C398.566 60.6748 400.668 58.5724 403.259 58.5724H437.679C440.271 58.5724 442.373 60.6748 442.373 63.266V142.471C442.373 145.062 440.271 147.164 437.679 147.164H381.454C336.62 147.164 300.293 116.02 300.293 75.5868C300.293 34.9577 336.571 2.2002 381.454 2.2002H437.679C440.222 2.29798 442.324 4.40033 442.324 6.9427Z" fill="#116541"/>
<path fill-rule="evenodd" clip-rule="evenodd" d="M1466.75 6.94257V34.4198C1466.75 37.011 1464.65 39.1134 1462.06 39.1134H1421.33C1399.87 39.1134 1382.61 54.5632 1382.86 76.2711C1383.1 95.4367 1399.72 110.349 1418.84 110.349H1462.06C1464.65 110.349 1466.75 112.451 1466.75 115.042V142.519C1466.75 145.111 1464.65 147.213 1462.06 147.213H1421.33C1376.5 147.213 1340.12 116.216 1340.12 75.7822C1340.12 35.202 1376.45 2.29785 1421.33 2.29785H1462.06C1464.65 2.29785 1466.75 4.4002 1466.75 6.94257Z" fill="#116541"/>
<path fill-rule="evenodd" clip-rule="evenodd" d="M496.398 58.6213C484.86 58.6213 475.424 68.1552 475.424 79.8892V142.568C475.424 145.16 477.526 147.262 480.117 147.262H514.537C517.128 147.262 519.231 145.16 519.231 142.568V99.2992C519.231 96.708 521.333 94.6056 523.924 94.6056H564.113C566.705 94.6056 568.807 96.708 568.807 99.2992V142.568C568.807 145.16 570.909 147.262 573.501 147.262H607.92C610.512 147.262 612.614 145.16 612.614 142.568V64.8305L612.761 24.9348C612.761 11.734 603.325 2.24902 591.786 2.24902H480.068C477.477 2.24902 475.375 4.35137 475.375 6.94263V34.4198C475.375 37.0111 477.477 39.1134 480.068 39.1134H562.256C565.825 39.1134 568.758 42.0469 568.758 45.616V52.1186C568.758 55.6877 565.825 58.6213 562.256 58.6213H496.398Z" fill="#116541"/>
<path fill-rule="evenodd" clip-rule="evenodd" d="M632.562 34.4687V6.94263C632.562 4.35137 634.664 2.24902 637.256 2.24902H757.138C759.73 2.24902 761.832 4.35137 761.832 6.94263V34.4198C761.832 37.0111 759.73 39.1134 757.138 39.1134H707.122V105.606C707.122 108.198 709.224 110.349 711.864 110.349H751.858H756.845C759.485 110.349 761.587 112.207 761.587 114.798V142.52C761.587 145.062 759.534 147.262 756.845 147.262H684.436C672.947 147.262 663.511 137.826 663.511 126.092L663.315 80.867V39.1623H637.305C634.664 39.1623 632.562 37.06 632.562 34.4687Z" fill="#116541"/>
<path fill-rule="evenodd" clip-rule="evenodd" d="M198.941 147.213C201.532 147.213 203.634 145.111 203.634 142.519L203.439 44.5403L203.585 23.2724C203.585 11.734 194.149 2.29785 182.464 2.29785H161.49H4.69361C2.10235 2.29785 0 4.4002 0 6.94257V142.519C0 145.111 2.10235 147.213 4.69361 147.213H39.1134C41.7047 147.213 43.807 145.111 43.807 142.519V43.807C43.807 41.2157 45.9094 39.1134 48.5007 39.1134H75.1467C77.7379 39.1134 79.8403 41.2157 79.8403 43.807V142.519C79.8403 145.111 81.9426 147.213 84.5339 147.213H118.954C121.545 147.213 123.647 145.111 123.647 142.519V43.807C123.647 41.2157 125.75 39.1134 128.341 39.1134H154.987C157.578 39.1134 159.681 41.2157 159.681 43.807V142.519C159.681 145.111 161.783 147.213 164.374 147.213H198.941Z" fill="#116541"/>
<path fill-rule="evenodd" clip-rule="evenodd" d="M1101.83 6.94257V142.519C1101.83 145.111 1103.93 147.213 1106.52 147.213H1140.94C1143.53 147.213 1145.63 145.111 1145.63 142.519V43.807C1145.63 41.2157 1147.73 39.1134 1150.33 39.1134H1194.77C1197.36 39.1134 1199.46 41.2157 1199.46 43.807V142.519C1199.46 145.111 1201.56 147.213 1204.16 147.213H1238.58C1241.17 147.213 1243.27 145.111 1243.27 142.519V43.6114V23.4191C1243.27 11.6851 1233.83 2.29785 1222.29 2.29785H1201.32H1106.57C1103.93 2.29785 1101.83 4.4002 1101.83 6.94257Z" fill="#116541"/>
<path d="M1007.02 0C965.613 0 932.024 33.5887 932.024 75C932.024 116.411 965.613 150 1007.02 150C1048.44 150 1082.02 116.411 1082.02 75C1082.02 33.5887 1048.44 0 1007.02 0ZM1007.02 110.838C986.881 110.838 970.6 94.5078 970.6 74.4133C970.6 54.3188 986.93 37.9889 1007.02 37.9889C1027.12 37.9889 1043.45 54.3188 1043.45 74.4133C1043.45 94.5567 1027.17 110.838 1007.02 110.838Z" fill="#116541"/>
</g>
</mask>
<g mask="url(#mask0_501_36)">
<rect x="-39.1135" width="1520.53" height="151.565" fill="white"/>
</g>
<defs>
<clipPath id="clip0_501_36">
<rect width="1466.75" height="150" fill="white"/>
</clipPath>
</defs>
</svg>
