<svg width="40" height="40" viewBox="0 0 40 40" fill="none" xmlns="http://www.w3.org/2000/svg">
<path d="M22.4282 40.0023L19.1987 32.4139C22.3093 31.2648 25.2218 29.7194 27.9164 27.9164L22.4282 40.0023ZM7.58834 20.8035L0 17.574L12.0859 12.0859C10.2829 14.7804 8.73749 17.6929 7.58834 20.8035ZM34.4943 3.96258C35.049 3.96258 35.5443 3.96258 35.9604 4.06165C36.2972 6.81564 35.9208 12.4821 29.4222 18.9808C26.054 22.3688 22.0319 24.9643 17.5146 26.688L13.2548 22.5273C15.0776 17.9505 17.6731 13.9285 21.0215 10.5801C26.4899 5.11173 31.3638 3.96258 34.4943 3.96258ZM34.4943 0C30.5713 0 24.6274 1.36709 18.2081 7.78647C13.869 12.1255 11.2735 16.9004 9.58945 21.0809C9.03468 22.5669 9.41113 24.1916 10.5008 25.3011L14.721 29.5014C15.4739 30.2543 16.4843 30.71 17.5344 30.71C17.9901 30.71 18.4656 30.5911 18.9213 30.4128C23.9113 28.5102 28.4421 25.5729 32.2158 21.7942C43.4299 10.5801 39.2295 0.772703 39.2295 0.772703C39.2295 0.772703 37.4266 0 34.4943 0ZM25.2218 14.7804C23.6764 13.235 23.6764 10.7188 25.2218 9.17337C26.7672 7.62797 29.2835 7.62797 30.8289 9.17337C32.3545 10.7188 32.3743 13.235 30.8289 14.7804C29.2835 16.3258 26.7672 16.3258 25.2218 14.7804ZM8.77712 39.6258L15.989 32.4139C15.3154 32.2356 14.6615 31.9384 14.0672 31.5223L5.9835 39.6258H8.77712ZM0.376445 39.6258H3.17006L12.6208 30.1949L9.80739 27.4012L0.376445 36.8322V39.6258ZM0.376445 34.0188L8.47992 25.9351C8.06385 25.3407 7.76666 24.7067 7.58834 24.0132L0.376445 31.2251V34.0188Z" fill="url(#paint0_linear_1564_7996)"/>
<defs>
<linearGradient id="paint0_linear_1564_7996" x1="37.8603" y1="29.8142" x2="17.4626" y2="29.9286" gradientUnits="userSpaceOnUse">
<stop stop-color="#D6545B"/>
<stop offset="1" stop-color="#FC946D"/>
</linearGradient>
</defs>
</svg>
