<svg width="27" height="24" viewBox="0 0 27 24" fill="none" xmlns="http://www.w3.org/2000/svg">
<path d="M0.5 2.28571V4.57143H26.2778V2.28571C26.2775 1.6796 26.0305 1.09839 25.5911 0.669805C25.1516 0.241216 24.5558 0.000302831 23.9343 0H2.84343C2.22201 0.000302831 1.62613 0.241216 1.18672 0.669805C0.747307 1.09839 0.50031 1.6796 0.5 2.28571ZM4.01515 3.42857C3.8622 3.42948 3.71057 3.40078 3.56906 3.34415C3.42756 3.28751 3.29897 3.20405 3.19076 3.09861C3.08255 2.99317 2.99685 2.86784 2.93864 2.72987C2.88043 2.59191 2.85086 2.44405 2.85164 2.29486C2.84945 1.99164 2.97077 1.69999 3.18894 1.48398C3.40711 1.26797 3.70428 1.14527 4.01515 1.14286C4.32751 1.14496 4.62644 1.26708 4.8471 1.48273C5.06776 1.69838 5.19236 1.99018 5.1939 2.29486C5.19298 2.44483 5.16174 2.59316 5.10198 2.73135C5.04221 2.86953 4.95509 2.99487 4.8456 3.10017C4.73612 3.20548 4.60641 3.28869 4.46391 3.34504C4.32141 3.40139 4.16891 3.42978 4.01515 3.42857ZM7.5303 3.42857C7.29856 3.42857 7.07202 3.36154 6.87933 3.23597C6.68664 3.11039 6.53646 2.9319 6.44778 2.72307C6.35909 2.51424 6.33589 2.28445 6.3811 2.06275C6.42631 1.84106 6.53791 1.63742 6.70177 1.47759C6.86564 1.31776 7.07442 1.20891 7.30171 1.16482C7.529 1.12072 7.7646 1.14335 7.9787 1.22985C8.1928 1.31635 8.3758 1.46284 8.50455 1.65078C8.6333 1.83872 8.70202 2.05968 8.70202 2.28571C8.70079 2.58845 8.57694 2.87844 8.35747 3.09251C8.138 3.30657 7.84068 3.42737 7.5303 3.42857ZM0.5 5.71429V21.7143C0.5 22.3205 0.746897 22.9019 1.18638 23.3305C1.62586 23.7592 2.22192 24 2.84343 24H23.9343C24.5559 24 25.1519 23.7592 25.5914 23.3305C26.0309 22.9019 26.2778 22.3205 26.2778 21.7143V5.71429H0.5ZM23.9343 21.7143H2.84343V8H23.9343V21.7143Z" fill="black"/>
</svg>
