<svg width="141" height="42" viewBox="0 0 141 42" fill="none" xmlns="http://www.w3.org/2000/svg">
<g clip-path="url(#clip0)">
<path d="M9.61964 41.125H0V19.9079L21.0421 0L42.856 20.7759L39.4059 20.8136L21.0403 3.60283L2.50139 20.9265V38.6143H9.61964V41.125Z" fill="white"/>
<path d="M18.4459 25.1519L14.1328 35.1516H11.8566L7.55774 25.1519H10.0484L13.0805 32.2948L16.1554 25.1519H18.4459Z" fill="white"/>
<path d="M20.874 25.1519H23.1789V35.1516H20.874V25.1519V25.1519Z" fill="white"/>
<path d="M28.8732 34.6585C28.0531 34.2155 27.4081 33.6022 26.9382 32.8149C26.4683 32.0295 26.2343 31.1418 26.2343 30.15C26.2343 29.1601 26.4683 28.2724 26.9382 27.4851C27.4081 26.6996 28.0531 26.0845 28.8732 25.6416C29.6933 25.1986 30.6171 24.978 31.6408 24.978C32.5038 24.978 33.2846 25.1305 33.9814 25.4353C34.6782 25.7402 35.2643 26.1778 35.7396 26.7499L34.2602 28.1218C33.5866 27.3417 32.7522 26.9507 31.7552 26.9507C31.1388 26.9507 30.5885 27.087 30.1043 27.3578C29.6201 27.6286 29.2431 28.007 28.9733 28.493C28.7035 28.979 28.5677 29.5313 28.5677 30.15C28.5677 30.7687 28.7035 31.3211 28.9733 31.8071C29.2431 32.2931 29.6201 32.6715 30.1043 32.9423C30.5885 33.2131 31.1388 33.3494 31.7552 33.3494C32.7522 33.3494 33.5866 32.9548 34.2602 32.164L35.7396 33.5359C35.2643 34.1169 34.6765 34.5599 33.9743 34.8647C33.2721 35.1696 32.4895 35.322 31.6265 35.322C30.6117 35.3238 29.6933 35.1015 28.8732 34.6585Z" fill="white"/>
<path d="M44.6856 33.0085H40.0598L39.1772 35.1516H36.8152L41.2551 25.1519H43.5332L47.9875 35.1516H45.5683L44.6856 33.0085ZM43.9584 31.251L42.379 27.4222L40.7995 31.251H43.9584Z" fill="white"/>
<path d="M54.9735 25.1519H59.4993C60.5802 25.1519 61.5361 25.3599 62.3669 25.7724C63.1977 26.1866 63.8428 26.7695 64.3019 27.5227C64.7629 28.2759 64.9916 29.151 64.9916 30.1517C64.9916 31.1524 64.7611 32.0275 64.3019 32.7807C63.841 33.534 63.196 34.1168 62.3669 34.5311C61.5361 34.9453 60.5802 35.1516 59.4993 35.1516H54.9735V25.1519ZM59.3849 33.2524C60.3819 33.2524 61.1752 32.9744 61.7684 32.4167C62.3616 31.859 62.6582 31.1058 62.6582 30.1535C62.6582 29.2012 62.3616 28.4462 61.7684 27.8885C61.1752 27.3308 60.3801 27.0528 59.3849 27.0528H57.2784V33.2524H59.3849Z" fill="white"/>
<path d="M73.8947 33.0085H69.269L68.3863 35.1516H66.0243L70.4643 25.1519H72.7423L77.1966 35.1516H74.7774L73.8947 33.0085ZM73.1693 31.251L71.5899 27.4222L70.0104 31.251H73.1693Z" fill="white"/>
<path d="M88.5832 25.1519V35.1516H86.6911L81.7241 29.0811V35.1516H79.446V25.1519H81.3525L86.3052 31.2223V25.1519H88.5832Z" fill="white"/>
<path d="M101.508 35.1516L101.494 29.151L98.5619 34.0935H97.5221L94.6044 29.2801V35.1516H92.4407V25.1519H94.3471L98.076 31.3658L101.748 25.1519H103.64L103.668 35.1516H101.508Z" fill="white"/>
<path d="M113.806 33.0085H109.18L108.298 35.1516H105.936L110.376 25.1519H112.652L117.106 35.1516H114.689L113.806 33.0085ZM113.081 31.251L111.501 27.4222L109.922 31.251H113.081Z" fill="white"/>
<path d="M125.706 35.1516L123.785 32.3665H123.671H121.664V35.1516H119.359V25.1519H123.672C124.555 25.1519 125.322 25.2989 125.97 25.5948C126.621 25.8907 127.121 26.3086 127.471 26.8519C127.821 27.3953 127.998 28.0373 127.998 28.7798C127.998 29.5222 127.819 30.1625 127.464 30.7005C127.108 31.2385 126.603 31.6509 125.949 31.9361L128.184 35.1498H125.706V35.1516ZM125.122 27.4886C124.761 27.1891 124.234 27.0385 123.542 27.0385H121.664V30.5247H123.542C124.235 30.5247 124.761 30.3723 125.122 30.0674C125.482 29.7625 125.663 29.3339 125.663 28.7816C125.663 28.2185 125.482 27.7881 125.122 27.4886Z" fill="white"/>
<path d="M135.122 31.2243L133.783 32.6249V35.1535H131.493V25.1538H133.783V29.8255L138.195 25.1538H140.757L136.63 29.6103L140.998 35.1535H138.309L135.122 31.2243Z" fill="white"/>
</g>
<defs>
<clipPath id="clip0">
<rect width="141" height="41.125" fill="white"/>
</clipPath>
</defs>
</svg>
