<svg width="586" height="365" viewBox="0 0 586 365" fill="none" xmlns="http://www.w3.org/2000/svg">
<g clip-path="url(#clip0_1910_5323)">
<path d="M241.042 347.977L254.031 300.152H190.411L177.556 348C177.837 347.988 178.118 347.977 178.4 347.977H241.042Z" fill="white"/>
<path d="M177.624 348.563C177.455 348.563 177.264 348.484 177.151 348.349C177.039 348.213 176.972 348.022 177.017 347.853L189.871 300.006C189.939 299.758 190.163 299.589 190.411 299.589H254.031C254.211 299.589 254.369 299.668 254.481 299.814C254.582 299.949 254.627 300.13 254.571 300.299L241.582 348.123C241.514 348.371 241.289 348.54 241.042 348.54H178.4C178.152 348.54 177.905 348.54 177.646 348.563H177.624ZM190.849 300.715L178.299 347.414H240.614L253.3 300.715H190.849Z" fill="#3A4972"/>
<path d="M281.888 351.447C281.675 351.323 281.45 351.199 281.225 351.075C277.705 349.137 273.364 347.977 268.651 347.977H178.411C178.13 347.977 177.849 347.988 177.568 348C171.202 348.259 165.59 351.447 163.307 356.179L159.708 363.682H289.783C289.783 358.736 286.702 354.32 281.888 351.447Z" fill="#3A4972"/>
<path d="M371.544 306.349H88.5083C83.155 306.349 78.814 301.797 78.814 296.187V112.278C78.814 106.668 83.155 102.116 88.5083 102.116H371.544C376.897 102.116 381.238 106.668 381.238 112.278V296.187C381.238 301.797 376.897 306.349 371.544 306.349Z" fill="white"/>
<path d="M371.544 306.912H88.5081C82.8512 306.912 78.2515 302.101 78.2515 296.186V112.278C78.2515 106.363 82.8512 101.553 88.5081 101.553H371.544C377.201 101.553 381.8 106.363 381.8 112.278V296.186C381.8 302.101 377.201 306.912 371.544 306.912ZM88.5081 102.679C83.4697 102.679 79.3761 106.983 79.3761 112.278V296.186C79.3761 301.481 83.4697 305.785 88.5081 305.785H371.544C376.582 305.785 380.676 301.481 380.676 296.186V112.278C380.676 106.983 376.582 102.679 371.544 102.679H88.5081Z" fill="#3A4972"/>
<path d="M78.8141 296.186V112.278C78.8141 106.713 83.0764 102.206 88.3622 102.127H78.3755C73.0222 102.127 68.6812 106.69 68.6812 112.312V296.581C68.6812 302.203 73.0222 306.765 78.3755 306.765H361.411C362.356 306.765 363.256 306.619 364.122 306.36H88.5084C83.1551 306.36 78.8141 301.808 78.8141 296.198V296.186Z" fill="#3A4972"/>
<path d="M361.411 307.317H78.3865C72.7296 307.317 68.1299 302.495 68.1299 296.569V112.312C68.1299 106.386 72.7296 101.564 78.3865 101.564H88.3732V102.691C83.4249 102.769 79.3874 107.073 79.3874 112.278V296.186C79.3874 301.481 83.4811 305.785 88.5194 305.785H367.9L364.29 306.889C363.345 307.182 362.378 307.329 361.422 307.329L361.411 307.317ZM78.3865 102.691C73.3482 102.691 69.2545 107.006 69.2545 112.312V296.581C69.2545 301.887 73.3482 306.202 78.3865 306.202H84.8306C80.9844 304.647 78.2628 300.749 78.2628 296.198V112.278C78.2628 108.11 80.5908 104.448 83.9647 102.691H78.3978H78.3865Z" fill="#3A4972"/>
<path d="M97.2803 157.715V116.368C97.2803 114.622 98.6973 113.202 100.44 113.202H361.332C363.075 113.202 364.492 114.622 364.492 116.368V270.5H97.2803V229.626" fill="#CACAE5"/>
<path d="M364.492 271.063H97.2801C96.9652 271.063 96.7178 270.815 96.7178 270.5V229.626C96.7178 229.311 96.9652 229.063 97.2801 229.063C97.595 229.063 97.8424 229.311 97.8424 229.626V269.936H363.93V116.368C363.93 114.937 362.76 113.765 361.332 113.765H100.44C99.012 113.765 97.8424 114.937 97.8424 116.368V157.714C97.8424 158.03 97.595 158.278 97.2801 158.278C96.9652 158.278 96.7178 158.03 96.7178 157.714V116.368C96.7178 114.306 98.3935 112.639 100.44 112.639H361.332C363.39 112.639 365.055 114.317 365.055 116.368V270.5C365.055 270.815 364.807 271.063 364.492 271.063Z" fill="#3A4972"/>
<path d="M97.2801 208.029C96.9652 208.029 96.7178 207.781 96.7178 207.466V176.721C96.7178 176.405 96.9652 176.157 97.2801 176.157C97.595 176.157 97.8424 176.405 97.8424 176.721V207.466C97.8424 207.781 97.595 208.029 97.2801 208.029Z" fill="#3A4972"/>
<path d="M370.498 305.324H89.7118C84.4035 305.324 80.0962 301.099 80.0962 295.894V270.511H380.125V295.894C380.125 301.11 375.818 305.324 370.51 305.324H370.498Z" fill="#3A4972"/>
<path d="M370.498 305.887H89.7116C84.0997 305.887 79.5337 301.403 79.5337 295.882V270.5C79.5337 270.184 79.7811 269.937 80.096 269.937H380.125C380.44 269.937 380.687 270.184 380.687 270.5V295.882C380.687 301.392 376.121 305.887 370.509 305.887H370.498ZM80.6471 271.063V295.882C80.6471 300.772 84.707 304.76 89.7004 304.76H370.487C375.48 304.76 379.54 300.783 379.54 295.882V271.063H80.6583H80.6471Z" fill="white"/>
<path d="M237.5 288.706C237.5 293.235 233.833 296.919 229.301 296.919C224.769 296.919 221.103 293.246 221.103 288.706C221.103 284.166 224.769 280.493 229.301 280.493C233.833 280.493 237.5 284.166 237.5 288.706Z" fill="white"/>
<path d="M229.301 297.482C224.476 297.482 220.54 293.55 220.54 288.706C220.54 283.862 224.465 279.93 229.301 279.93C234.137 279.93 238.062 283.862 238.062 288.706C238.062 293.55 234.137 297.482 229.301 297.482ZM229.301 281.068C225.095 281.068 221.665 284.492 221.665 288.717C221.665 292.942 225.084 296.367 229.301 296.367C233.518 296.367 236.937 292.942 236.937 288.717C236.937 284.492 233.518 281.068 229.301 281.068Z" fill="#3A4972"/>
<path d="M234.137 288.706C234.137 291.376 231.977 293.551 229.301 293.551C226.624 293.551 224.465 291.388 224.465 288.706C224.465 286.025 226.624 283.862 229.301 283.862C231.977 283.862 234.137 286.025 234.137 288.706Z" fill="#CACAE5"/>
<path d="M229.301 294.114C226.332 294.114 223.902 291.692 223.902 288.706C223.902 285.721 226.32 283.298 229.301 283.298C232.281 283.298 234.699 285.721 234.699 288.706C234.699 291.692 232.281 294.114 229.301 294.114ZM229.301 284.436C226.95 284.436 225.027 286.351 225.027 288.717C225.027 291.083 226.939 292.998 229.301 292.998C231.662 292.998 233.574 291.083 233.574 288.717C233.574 286.351 231.662 284.436 229.301 284.436Z" fill="#3A4972"/>
<path d="M229.301 109.462C228.255 109.462 227.4 108.606 227.4 107.558C227.4 106.51 228.255 105.654 229.301 105.654C230.347 105.654 231.202 106.51 231.202 107.558C231.202 108.606 230.347 109.462 229.301 109.462Z" fill="#CACAE5"/>
<path d="M229.301 110.025C227.94 110.025 226.838 108.921 226.838 107.558C226.838 106.194 227.94 105.09 229.301 105.09C230.662 105.09 231.764 106.194 231.764 107.558C231.764 108.921 230.662 110.025 229.301 110.025ZM229.301 106.217C228.559 106.217 227.963 106.814 227.963 107.558C227.963 108.301 228.559 108.898 229.301 108.898C230.043 108.898 230.639 108.301 230.639 107.558C230.639 106.814 230.043 106.217 229.301 106.217Z" fill="#3A4972"/>
<path d="M134.618 180.697C134.303 180.697 134.056 180.449 134.056 180.134V166.806C134.056 166.491 134.303 166.243 134.618 166.243C134.933 166.243 135.18 166.491 135.18 166.806V180.134C135.18 180.449 134.933 180.697 134.618 180.697Z" fill="#707EA5"/>
<path d="M181.965 229.896C181.65 229.896 181.403 229.648 181.403 229.333V212.479C181.403 212.163 181.65 211.916 181.965 211.916C182.28 211.916 182.527 212.163 182.527 212.479V229.333C182.527 229.648 182.28 229.896 181.965 229.896Z" fill="#707EA5"/>
<path d="M227.175 180.697C226.86 180.697 226.613 180.449 226.613 180.134V166.806C226.613 166.491 226.86 166.243 227.175 166.243C227.49 166.243 227.737 166.491 227.737 166.806V180.134C227.737 180.449 227.49 180.697 227.175 180.697Z" fill="#707EA5"/>
<path d="M181.38 180.697C181.065 180.697 180.818 180.449 180.818 180.134V166.806C180.818 166.491 181.065 166.243 181.38 166.243C181.695 166.243 181.943 166.491 181.943 166.806V180.134C181.943 180.449 181.695 180.697 181.38 180.697Z" fill="url(#paint0_linear_1910_5323)"/>
<path d="M227.04 230.223C226.725 230.223 226.478 229.975 226.478 229.66V212.276C226.478 211.961 226.725 211.713 227.04 211.713C227.355 211.713 227.603 211.961 227.603 212.276V229.66C227.603 229.975 227.355 230.223 227.04 230.223Z" fill="url(#paint1_linear_1910_5323)"/>
<path d="M162.206 242.638H148.901C148.586 242.638 148.339 242.39 148.339 242.075C148.339 241.76 148.586 241.512 148.901 241.512H162.206C162.52 241.512 162.768 241.76 162.768 242.075C162.768 242.39 162.52 242.638 162.206 242.638Z" fill="url(#paint2_linear_1910_5323)"/>
<path d="M243.674 134.743H120.426C119.767 134.743 119.233 135.277 119.233 135.937V165.432C119.233 166.091 119.767 166.626 120.426 166.626H243.674C244.332 166.626 244.866 166.091 244.866 165.432V135.937C244.866 135.277 244.332 134.743 243.674 134.743Z" fill="url(#paint3_linear_1910_5323)"/>
<path d="M243.674 167.189H120.425C119.458 167.189 118.671 166.4 118.671 165.431V135.937C118.671 134.968 119.458 134.179 120.425 134.179H243.674C244.641 134.179 245.428 134.968 245.428 135.937V165.431C245.428 166.4 244.641 167.189 243.674 167.189ZM120.425 135.306C120.077 135.306 119.796 135.587 119.796 135.937V165.431C119.796 165.781 120.077 166.062 120.425 166.062H243.674C244.022 166.062 244.303 165.781 244.303 165.431V135.937C244.303 135.587 244.022 135.306 243.674 135.306H120.425Z" fill="#3A4972"/>
<path d="M149.576 180.359H120.696C120.037 180.359 119.503 180.894 119.503 181.554V210.485C119.503 211.145 120.037 211.679 120.696 211.679H149.576C150.234 211.679 150.768 211.145 150.768 210.485V181.554C150.768 180.894 150.234 180.359 149.576 180.359Z" fill="white"/>
<path d="M149.587 212.254H120.707C119.739 212.254 118.952 211.465 118.952 210.496V181.565C118.952 180.596 119.739 179.807 120.707 179.807H149.587C150.554 179.807 151.342 180.596 151.342 181.565V210.496C151.342 211.465 150.554 212.254 149.587 212.254ZM120.707 180.934C120.358 180.934 120.077 181.215 120.077 181.565V210.496C120.077 210.845 120.358 211.127 120.707 211.127H149.587C149.936 211.127 150.217 210.845 150.217 210.496V181.565C150.217 181.215 149.936 180.934 149.587 180.934H120.707Z" fill="#3A4972"/>
<path d="M196.484 180.359H167.604C166.945 180.359 166.412 180.894 166.412 181.554V210.485C166.412 211.145 166.945 211.679 167.604 211.679H196.484C197.143 211.679 197.676 211.145 197.676 210.485V181.554C197.676 180.894 197.143 180.359 196.484 180.359Z" fill="#707EA5"/>
<path d="M196.484 212.254H167.604C166.636 212.254 165.849 211.465 165.849 210.496V181.565C165.849 180.596 166.636 179.807 167.604 179.807H196.484C197.451 179.807 198.238 180.596 198.238 181.565V210.496C198.238 211.465 197.451 212.254 196.484 212.254ZM167.604 180.934C167.255 180.934 166.974 181.215 166.974 181.565V210.496C166.974 210.845 167.255 211.127 167.604 211.127H196.484C196.833 211.127 197.114 210.845 197.114 210.496V181.565C197.114 181.215 196.833 180.934 196.484 180.934H167.604Z" fill="#3A4972"/>
<path d="M242.414 180.359H213.534C212.876 180.359 212.342 180.894 212.342 181.554V210.485C212.342 211.145 212.876 211.679 213.534 211.679H242.414C243.073 211.679 243.607 211.145 243.607 210.485V181.554C243.607 180.894 243.073 180.359 242.414 180.359Z" fill="white"/>
<path d="M242.414 212.254H213.534C212.567 212.254 211.779 211.465 211.779 210.496V181.565C211.779 180.596 212.567 179.807 213.534 179.807H242.414C243.381 179.807 244.169 180.596 244.169 181.565V210.496C244.169 211.465 243.381 212.254 242.414 212.254ZM213.534 180.934C213.185 180.934 212.904 181.215 212.904 181.565V210.496C212.904 210.845 213.185 211.127 213.534 211.127H242.414C242.763 211.127 243.044 210.845 243.044 210.496V181.565C243.044 181.215 242.763 180.934 242.414 180.934H213.534Z" fill="#3A4972"/>
<path d="M230.921 230.144H174.509C167.882 230.144 162.509 235.526 162.509 242.165V242.176C162.509 248.815 167.882 254.197 174.509 254.197H230.921C237.548 254.197 242.92 248.815 242.92 242.176V242.165C242.92 235.526 237.548 230.144 230.921 230.144Z" fill="white"/>
<path d="M230.909 254.76H174.509C167.581 254.76 161.947 249.116 161.947 242.176C161.947 235.236 167.581 229.592 174.509 229.592H230.909C237.837 229.592 243.471 235.236 243.471 242.176C243.471 249.116 237.837 254.76 230.909 254.76ZM174.509 230.707C168.2 230.707 163.071 235.845 163.071 242.165C163.071 248.485 168.2 253.622 174.509 253.622H230.909C237.218 253.622 242.347 248.485 242.347 242.165C242.347 235.845 237.218 230.707 230.909 230.707H174.509Z" fill="#3A4972"/>
<path d="M296.835 205.618H270.811C270.496 205.618 270.249 205.37 270.249 205.055C270.249 204.739 270.496 204.491 270.811 204.491H296.835C297.15 204.491 297.397 204.739 297.397 205.055C297.397 205.37 297.15 205.618 296.835 205.618Z" fill="white"/>
<path d="M339.143 205.618H307.541C307.226 205.618 306.979 205.37 306.979 205.055C306.979 204.739 307.226 204.491 307.541 204.491H339.143C339.458 204.491 339.706 204.739 339.706 205.055C339.706 205.37 339.458 205.618 339.143 205.618Z" fill="white"/>
<path d="M318.293 247.528H270.8C270.485 247.528 270.237 247.28 270.237 246.965C270.237 246.649 270.485 246.401 270.8 246.401H318.293C318.608 246.401 318.855 246.649 318.855 246.965C318.855 247.28 318.608 247.528 318.293 247.528Z" fill="white"/>
<path d="M345.554 220.129H270.811C270.496 220.129 270.249 219.881 270.249 219.565C270.249 219.25 270.496 219.002 270.811 219.002H345.554C345.869 219.002 346.116 219.25 346.116 219.565C346.116 219.881 345.869 220.129 345.554 220.129Z" fill="white"/>
<path d="M294.484 233.941H270.8C270.485 233.941 270.237 233.693 270.237 233.378C270.237 233.062 270.485 232.814 270.8 232.814H294.484C294.799 232.814 295.047 233.062 295.047 233.378C295.047 233.693 294.799 233.941 294.484 233.941Z" fill="white"/>
<path d="M344.901 233.941H301.783C301.468 233.941 301.221 233.693 301.221 233.378C301.221 233.062 301.468 232.814 301.783 232.814H344.901C345.216 232.814 345.464 233.062 345.464 233.378C345.464 233.693 345.216 233.941 344.901 233.941Z" fill="white"/>
<path d="M348.613 143.485H269.732V135.745C269.732 134.776 270.508 133.999 271.475 133.999H346.364C347.612 133.999 348.613 135.013 348.613 136.252V143.485Z" fill="#707EA5"/>
<path d="M280.1 140.657C278.987 140.657 278.087 139.745 278.087 138.629C278.087 137.514 278.987 136.602 280.1 136.602C281.214 136.602 282.114 137.514 282.114 138.629C282.114 139.745 281.214 140.657 280.1 140.657ZM280.1 137.739C279.606 137.739 279.212 138.145 279.212 138.641C279.212 139.136 279.617 139.542 280.1 139.542C280.584 139.542 280.989 139.136 280.989 138.641C280.989 138.145 280.584 137.739 280.1 137.739Z" fill="white"/>
<path d="M285.78 140.657C284.667 140.657 283.767 139.745 283.767 138.629C283.767 137.514 284.667 136.602 285.78 136.602C286.894 136.602 287.793 137.514 287.793 138.629C287.793 139.745 286.894 140.657 285.78 140.657ZM285.78 137.739C285.285 137.739 284.892 138.145 284.892 138.641C284.892 139.136 285.297 139.542 285.78 139.542C286.264 139.542 286.669 139.136 286.669 138.641C286.669 138.145 286.264 137.739 285.78 137.739Z" fill="white"/>
<path d="M274.455 140.657C273.342 140.657 272.442 139.745 272.442 138.629C272.442 137.514 273.342 136.602 274.455 136.602C275.568 136.602 276.468 137.514 276.468 138.629C276.468 139.745 275.568 140.657 274.455 140.657ZM274.455 137.739C273.96 137.739 273.567 138.145 273.567 138.641C273.567 139.136 273.971 139.542 274.455 139.542C274.939 139.542 275.343 139.136 275.343 138.641C275.343 138.145 274.939 137.739 274.455 137.739Z" fill="white"/>
<path d="M269.957 189.924H348.332C348.475 189.924 348.591 189.808 348.591 189.665V143.744C348.591 143.601 348.475 143.485 348.332 143.485H269.957C269.814 143.485 269.698 143.601 269.698 143.744V189.665C269.698 189.808 269.814 189.924 269.957 189.924Z" fill="white"/>
<path d="M338.311 155.315H302.852C302.537 155.315 302.29 155.067 302.29 154.751C302.29 154.436 302.537 154.188 302.852 154.188H338.311C338.626 154.188 338.874 154.436 338.874 154.751C338.874 155.067 338.626 155.315 338.311 155.315Z" fill="#707EA5"/>
<path d="M315.302 160.7H302.841C302.526 160.7 302.278 160.452 302.278 160.137C302.278 159.821 302.526 159.573 302.841 159.573H315.302C315.616 159.573 315.864 159.821 315.864 160.137C315.864 160.452 315.616 160.7 315.302 160.7Z" fill="url(#paint4_linear_1910_5323)"/>
<path d="M335.556 160.7H320.43C320.115 160.7 319.868 160.452 319.868 160.137C319.868 159.821 320.115 159.573 320.43 159.573H335.556C335.871 159.573 336.119 159.821 336.119 160.137C336.119 160.452 335.871 160.7 335.556 160.7Z" fill="#707EA5"/>
<path d="M325.569 177.058H302.841C302.526 177.058 302.278 176.81 302.278 176.495C302.278 176.179 302.526 175.932 302.841 175.932H325.569C325.884 175.932 326.132 176.179 326.132 176.495C326.132 176.81 325.884 177.058 325.569 177.058Z" fill="url(#paint5_linear_1910_5323)"/>
<path d="M338.615 166.367H302.841C302.526 166.367 302.278 166.119 302.278 165.804C302.278 165.488 302.526 165.24 302.841 165.24H338.615C338.93 165.24 339.177 165.488 339.177 165.804C339.177 166.119 338.93 166.367 338.615 166.367Z" fill="url(#paint6_linear_1910_5323)"/>
<path d="M314.177 171.752H302.841C302.526 171.752 302.278 171.504 302.278 171.189C302.278 170.873 302.526 170.625 302.841 170.625H314.177C314.492 170.625 314.739 170.873 314.739 171.189C314.739 171.504 314.492 171.752 314.177 171.752Z" fill="#707EA5"/>
<path d="M338.312 171.752H317.675C317.36 171.752 317.112 171.504 317.112 171.189C317.112 170.873 317.36 170.625 317.675 170.625H338.312C338.626 170.625 338.874 170.873 338.874 171.189C338.874 171.504 338.626 171.752 338.312 171.752Z" fill="url(#paint7_linear_1910_5323)"/>
<path d="M278.526 164.823C278.526 160.429 281.698 156.79 285.87 156.046L285.521 154.007C279.561 155.021 275.546 160.688 276.558 166.659L278.661 166.299C278.582 165.814 278.526 165.33 278.526 164.823Z" fill="url(#paint8_linear_1910_5323)"/>
<path d="M287.422 173.746C283.002 173.746 279.358 170.524 278.65 166.299L276.547 166.659C277.559 172.63 283.216 176.652 289.176 175.638L288.839 173.622C288.378 173.701 287.906 173.746 287.433 173.746H287.422Z" fill="#CACAE5"/>
<path d="M298.151 162.987C297.139 157.016 291.482 152.994 285.521 154.007L285.87 156.047C286.376 155.957 286.894 155.9 287.433 155.9C292.348 155.9 296.34 159.888 296.34 164.823C296.34 169.273 293.09 172.946 288.85 173.622L289.188 175.638C293.664 174.884 297.038 171.504 298.016 167.347C298.185 166.648 298.275 165.938 298.297 165.206C298.32 164.474 298.275 163.73 298.151 162.987Z" fill="#707EA5"/>
<path d="M579.117 104.144L574.18 88.5065C573.775 87.2222 572.414 86.5124 571.132 86.918L561.055 90.1063C560.021 90.433 558.885 90.05 558.3 89.1374C556.118 85.7351 553.543 82.6819 550.641 80.0006C549.843 79.2683 549.663 78.0741 550.158 77.1165L555.027 67.7205C555.646 66.5263 555.185 65.0617 553.993 64.4421L539.463 56.8825C538.27 56.2629 536.808 56.7248 536.19 57.919L531.309 67.3149C530.814 68.2725 529.735 68.8021 528.677 68.5767C524.82 67.7318 520.839 67.3825 516.813 67.5403C515.733 67.5853 514.766 66.8755 514.44 65.8391L511.257 55.7446C510.852 54.4603 509.491 53.7505 508.209 54.1561L492.599 59.1019C491.317 59.5075 490.609 60.8707 491.013 62.155L494.196 72.2495C494.522 73.286 494.14 74.4239 493.229 75.0097C489.833 77.1953 486.785 79.7753 484.108 82.6819C483.377 83.4818 482.185 83.6621 481.229 83.1664L471.85 78.2881C470.658 77.6685 469.196 78.1304 468.577 79.3246L461.031 93.8805C460.412 95.0747 460.873 96.5393 462.065 97.1589L471.445 102.048C472.401 102.544 472.929 103.626 472.705 104.685C471.861 108.549 471.512 112.537 471.67 116.57C471.715 117.652 471.006 118.621 469.972 118.948L459.895 122.136C458.613 122.541 457.904 123.905 458.309 125.189L463.246 140.826C463.651 142.111 465.012 142.821 466.294 142.415L476.371 139.227C477.405 138.9 478.541 139.283 479.126 140.196C481.308 143.598 483.883 146.651 486.785 149.332C487.583 150.065 487.763 151.259 487.268 152.216L482.399 161.612C481.78 162.807 482.241 164.271 483.433 164.891L497.964 172.45C499.156 173.07 500.618 172.608 501.236 171.414L506.117 162.018C506.612 161.06 507.692 160.531 508.749 160.756C512.606 161.601 516.588 161.95 520.614 161.793C521.693 161.748 522.661 162.457 522.987 163.494L526.169 173.588C526.574 174.873 527.935 175.582 529.217 175.177L544.827 170.231C546.109 169.825 546.818 168.462 546.413 167.178L543.23 157.083C542.904 156.047 543.286 154.909 544.197 154.323C547.594 152.138 550.641 149.558 553.318 146.651C554.049 145.851 555.241 145.671 556.197 146.167L565.576 151.045C566.769 151.664 568.231 151.203 568.849 150.008L576.395 135.452C577.014 134.258 576.553 132.794 575.361 132.174L565.981 127.285C565.025 126.789 564.497 125.707 564.722 124.648C565.565 120.784 565.914 116.796 565.756 112.762C565.711 111.681 566.42 110.712 567.455 110.385L577.531 107.197C578.813 106.791 579.522 105.428 579.117 104.144ZM526.586 139.846C509.975 144.612 493.15 133.447 491.058 116.266C489.405 102.747 497.986 89.7796 511.054 86.028C527.665 81.2624 544.49 92.4271 546.581 109.608C548.235 123.127 539.654 136.095 526.586 139.846Z" fill="#CACAE5"/>
<path d="M579.376 98.2855L574.439 82.6481C574.034 81.3638 572.673 80.654 571.391 81.0596L561.314 84.2479C560.28 84.5746 559.144 84.1916 558.559 83.279C556.377 79.8766 553.802 76.8235 550.9 74.1422C550.102 73.4099 549.922 72.2157 550.417 71.2581L555.286 61.8621C555.905 60.6679 555.444 59.2033 554.252 58.5837L539.721 51.0241C538.529 50.4045 537.067 50.8664 536.449 52.0606L531.568 61.4565C531.073 62.4142 529.993 62.9437 528.936 62.7183C525.079 61.8734 521.097 61.5241 517.071 61.6819C515.992 61.7269 515.024 61.0172 514.698 59.9807L511.516 49.8862C511.111 48.6019 509.75 47.8921 508.468 48.2977L492.858 53.2435C491.576 53.6491 490.867 55.0123 491.272 56.2966L494.455 66.3911C494.781 67.4276 494.399 68.5655 493.488 69.1513C490.091 71.3369 487.044 73.9169 484.367 76.8235C483.636 77.6234 482.444 77.8037 481.488 77.308L472.109 72.4297C470.916 71.8101 469.454 72.272 468.836 73.4662L461.29 88.0221C460.671 89.2163 461.132 90.6809 462.324 91.3005L471.704 96.19C472.66 96.6857 473.188 97.7673 472.963 98.8263C472.12 102.691 471.771 106.679 471.929 110.712C471.974 111.794 471.265 112.762 470.23 113.089L460.154 116.278C458.872 116.683 458.163 118.046 458.568 119.331L463.505 134.968C463.91 136.252 465.271 136.962 466.553 136.557L476.63 133.368C477.664 133.041 478.8 133.425 479.385 134.337C481.567 137.739 484.142 140.793 487.044 143.474C487.842 144.206 488.022 145.4 487.527 146.358L482.658 155.754C482.039 156.948 482.5 158.413 483.692 159.032L498.222 166.592C499.415 167.212 500.877 166.75 501.495 165.556L506.376 156.16C506.871 155.202 507.951 154.672 509.008 154.898C512.865 155.743 516.846 156.092 520.873 155.934C521.952 155.889 522.919 156.599 523.246 157.635L526.428 167.73C526.833 169.014 528.194 169.724 529.476 169.318L545.086 164.373C546.368 163.967 547.076 162.604 546.672 161.319L543.489 151.225C543.163 150.189 543.545 149.051 544.456 148.465C547.852 146.279 550.9 143.699 553.577 140.793C554.308 139.993 555.5 139.812 556.456 140.308L565.835 145.186C567.027 145.806 568.489 145.344 569.108 144.15L576.654 129.594C577.273 128.4 576.812 126.935 575.62 126.316L566.24 121.426C565.284 120.93 564.756 119.849 564.981 118.79C565.824 114.926 566.173 110.937 566.015 106.904C565.97 105.823 566.679 104.854 567.713 104.527L577.79 101.339C579.072 100.933 579.781 99.5698 579.376 98.2855ZM526.844 135.554C510.234 140.319 493.409 129.155 491.317 111.974C489.664 98.4545 498.245 85.4872 511.313 81.7356C527.924 76.97 544.748 88.1347 546.84 105.316C548.493 118.835 539.913 131.802 526.844 135.554Z" fill="url(#paint9_linear_1910_5323)"/>
<path d="M528.756 169.972C527.485 169.972 526.305 169.15 525.9 167.876L522.717 157.782C522.47 156.982 521.716 156.43 520.906 156.475C516.88 156.644 512.832 156.295 508.895 155.427C508.097 155.247 507.265 155.653 506.882 156.396L502.013 165.792C501.641 166.502 501.023 167.032 500.258 167.268C499.493 167.505 498.684 167.437 497.975 167.065L483.445 159.506C482.736 159.134 482.208 158.514 481.972 157.748C481.735 156.982 481.803 156.171 482.174 155.461L487.044 146.065C487.426 145.322 487.28 144.409 486.684 143.857C483.715 141.119 481.106 138.01 478.935 134.619C478.497 133.932 477.631 133.627 476.832 133.887L466.755 137.075C465.181 137.571 463.494 136.692 462.999 135.126L458.062 119.488C457.567 117.911 458.444 116.233 460.008 115.726L470.084 112.537C470.883 112.289 471.423 111.535 471.389 110.723C471.22 106.69 471.58 102.634 472.435 98.6912C472.603 97.8913 472.21 97.0689 471.468 96.6746L462.088 91.7963C461.38 91.4246 460.851 90.8049 460.615 90.0388C460.379 89.2727 460.446 88.4616 460.817 87.7518L468.364 73.196C468.735 72.4862 469.353 71.9567 470.118 71.7201C470.883 71.4835 471.693 71.5511 472.401 71.9229L481.78 76.8011C482.523 77.1842 483.434 77.0377 483.985 76.4406C486.718 73.4663 489.822 70.8526 493.207 68.6782C493.893 68.2389 494.196 67.3714 493.938 66.5715L490.755 56.477C490.519 55.7109 490.586 54.8998 490.957 54.19C491.329 53.4802 491.947 52.9507 492.712 52.7141L508.322 47.7683C509.885 47.2726 511.572 48.1401 512.078 49.7173L515.261 59.8118C515.508 60.6117 516.262 61.1412 517.071 61.1187C521.109 60.9497 525.146 61.2989 529.082 62.1664C529.881 62.3354 530.702 61.9411 531.096 61.1975L535.976 51.8016C536.741 50.337 538.541 49.7624 540.014 50.5285L554.544 58.0881C556.006 58.8542 556.58 60.6568 555.815 62.1326L550.945 71.5286C550.563 72.2721 550.709 73.1847 551.305 73.7367C554.274 76.4744 556.883 79.5839 559.054 82.9862C559.492 83.6735 560.358 83.9776 561.157 83.7185L571.234 80.5302C571.998 80.2936 572.808 80.3612 573.517 80.733C574.225 81.1048 574.742 81.7244 574.99 82.4905L579.927 98.1279C580.422 99.7052 579.556 101.384 577.981 101.891L567.905 105.079C567.106 105.338 566.566 106.082 566.6 106.893C566.769 110.926 566.409 114.982 565.554 118.925C565.386 119.725 565.779 120.547 566.521 120.942L575.901 125.831C577.363 126.597 577.936 128.4 577.172 129.876L569.625 144.432C569.254 145.141 568.636 145.671 567.871 145.908C567.106 146.144 566.296 146.077 565.588 145.705L556.209 140.827C555.466 140.432 554.555 140.59 554.004 141.187C551.271 144.161 548.167 146.775 544.771 148.949C544.085 149.389 543.781 150.256 544.04 151.067L547.223 161.162C547.718 162.739 546.84 164.418 545.277 164.925L529.667 169.871C529.364 169.961 529.071 170.006 528.768 170.006L528.756 169.972ZM520.974 155.349C522.245 155.349 523.392 156.194 523.785 157.444L526.968 167.539C527.283 168.519 528.329 169.071 529.307 168.755L544.917 163.809C545.896 163.494 546.447 162.446 546.132 161.466L542.949 151.372C542.544 150.087 543.039 148.69 544.152 147.969C547.459 145.84 550.495 143.283 553.161 140.387C554.06 139.407 555.522 139.17 556.715 139.79L566.094 144.668C566.533 144.894 567.039 144.939 567.511 144.792C567.983 144.646 568.377 144.319 568.602 143.868L576.148 129.313C576.621 128.4 576.261 127.273 575.35 126.789L565.97 121.899C564.778 121.28 564.137 119.939 564.418 118.644C565.251 114.79 565.599 110.836 565.43 106.893C565.374 105.575 566.229 104.358 567.522 103.952L577.599 100.764C578.577 100.449 579.128 99.401 578.814 98.4208L573.876 82.7834C573.73 82.3103 573.404 81.9159 572.954 81.6906C572.516 81.4653 572.01 81.4202 571.537 81.5667L561.461 84.755C560.19 85.1606 558.784 84.6649 558.064 83.5495C555.939 80.226 553.386 77.1954 550.495 74.5254C549.517 73.6241 549.281 72.1595 549.899 70.9653L554.769 61.5693C555.241 60.6568 554.881 59.5301 553.97 59.0457L539.44 51.4861C538.529 51.013 537.393 51.3622 536.921 52.286L532.051 61.682C531.433 62.8762 530.095 63.5184 528.801 63.2367C524.955 62.403 521.008 62.0538 517.071 62.2227C515.756 62.2678 514.541 61.4229 514.136 60.1272L510.953 50.0328C510.638 49.0526 509.593 48.5006 508.614 48.8161L493.004 53.7619C492.532 53.9083 492.138 54.2351 491.913 54.6857C491.688 55.1251 491.643 55.6321 491.79 56.1052L494.972 66.1997C495.377 67.484 494.882 68.881 493.769 69.6021C490.463 71.7314 487.426 74.2888 484.761 77.1842C483.861 78.1643 482.399 78.4122 481.207 77.7813L471.828 72.903C471.389 72.6777 470.883 72.6326 470.41 72.7791C469.938 72.9256 469.544 73.2523 469.32 73.7029L461.773 88.2588C461.548 88.6981 461.503 89.2051 461.65 89.6896C461.796 90.1627 462.122 90.5571 462.572 90.7824L471.951 95.6606C473.143 96.2803 473.784 97.6209 473.503 98.9165C472.671 102.77 472.322 106.724 472.491 110.667C472.547 111.985 471.681 113.202 470.399 113.608L460.323 116.796C459.344 117.111 458.793 118.159 459.108 119.139L464.045 134.777C464.36 135.757 465.406 136.309 466.384 135.993L476.461 132.805C477.743 132.399 479.138 132.895 479.857 134.01C481.983 137.323 484.525 140.365 487.426 143.035C488.405 143.936 488.641 145.401 488.022 146.595L483.153 155.991C482.928 156.43 482.883 156.937 483.029 157.422C483.175 157.895 483.501 158.289 483.951 158.514L498.481 166.074C498.92 166.31 499.426 166.344 499.898 166.198C500.371 166.051 500.764 165.725 500.989 165.274L505.859 155.878C506.477 154.684 507.816 154.042 509.109 154.323C512.955 155.157 516.903 155.506 520.839 155.337C520.884 155.337 520.918 155.337 520.963 155.337L520.974 155.349ZM519.073 137.21C513.518 137.21 508.041 135.588 503.328 132.456C496.356 127.825 491.778 120.39 490.755 112.03C489.079 98.2631 497.851 85.0029 511.156 81.1836C519.231 78.8628 527.868 80.1922 534.829 84.8113C541.802 89.4417 546.379 96.8774 547.403 105.237C549.078 119.004 540.306 132.264 527.002 136.083C524.393 136.827 521.727 137.199 519.073 137.199V137.21ZM519.073 81.1949C516.532 81.1949 513.967 81.5442 511.459 82.2652C498.672 85.9379 490.249 98.6687 491.868 111.895C492.847 119.917 497.244 127.071 503.947 131.521C510.639 135.96 518.927 137.233 526.687 135.013C539.474 131.34 547.897 118.61 546.278 105.383C545.3 97.3618 540.902 90.2078 534.2 85.7577C529.667 82.7496 524.404 81.1949 519.073 81.1949Z" fill="#3A4972"/>
<path d="M481.781 101.553C481.781 101.553 481.702 101.553 481.668 101.541C481.364 101.474 481.173 101.181 481.23 100.877C484.131 86.8955 494.781 75.3477 508.356 71.4609C511.876 70.447 515.486 69.94 519.085 69.9287C519.399 69.9287 519.647 70.1766 519.647 70.492C519.647 70.8075 519.399 71.0553 519.085 71.0553C515.587 71.0553 512.078 71.5623 508.659 72.5425C495.479 76.3279 485.143 87.5377 482.332 101.113C482.275 101.384 482.039 101.564 481.781 101.564V101.553Z" fill="white"/>
<path d="M519.073 147.35C511.549 147.35 504.127 145.153 497.728 140.917C488.281 134.653 482.073 124.558 480.701 113.236C480.667 112.932 480.881 112.65 481.196 112.605C481.499 112.56 481.78 112.785 481.825 113.101C483.164 124.096 489.192 133.887 498.357 139.97C507.523 146.054 518.882 147.8 529.51 144.747C547.02 139.723 558.559 122.283 556.343 104.178C554.555 89.4869 544.31 77.1505 530.252 72.7455C529.96 72.6553 529.791 72.3399 529.881 72.0357C529.971 71.7428 530.286 71.5738 530.589 71.6639C545.075 76.2042 555.624 88.9011 557.468 104.032C559.74 122.688 547.864 140.646 529.825 145.829C526.293 146.843 522.672 147.338 519.084 147.338L519.073 147.35Z" fill="white"/>
<path d="M519.073 140.759C512.831 140.759 506.668 138.945 501.371 135.419C493.533 130.214 488.382 121.843 487.235 112.458C485.345 96.9787 495.208 82.0736 510.177 77.7812C519.264 75.1787 528.959 76.6658 536.797 81.8708C544.636 87.0757 549.787 95.4465 550.923 104.831C552.812 120.311 542.949 135.216 527.991 139.508C525.056 140.353 522.053 140.77 519.073 140.77V140.759ZM519.073 77.3643C516.172 77.3643 513.248 77.7699 510.391 78.5924C495.827 82.7721 486.223 97.2829 488.056 112.357C489.169 121.505 494.185 129.65 501.821 134.72C509.446 139.779 518.893 141.232 527.744 138.697C542.308 134.517 551.912 120.007 550.079 104.933C548.966 95.7845 543.95 87.6391 536.325 82.5693C531.163 79.1444 525.157 77.3643 519.084 77.3643H519.073Z" fill="white"/>
<path d="M496.232 38.6655H495.715C494.46 38.6655 493.443 39.6844 493.443 40.9413V58.3475C493.443 59.6043 494.46 60.6232 495.715 60.6232H496.232C497.487 60.6232 498.504 59.6043 498.504 58.3475V40.9413C498.504 39.6844 497.487 38.6655 496.232 38.6655Z" fill="#3A4972"/>
<path d="M496.232 61.1863H495.715C494.152 61.1863 492.881 59.9132 492.881 58.3472V40.9523C492.881 39.3863 494.152 38.1133 495.715 38.1133H496.232C497.795 38.1133 499.066 39.3863 499.066 40.9523V58.3472C499.066 59.9132 497.795 61.1863 496.232 61.1863ZM495.715 39.2286C494.77 39.2286 494.005 39.9947 494.005 40.9411V58.336C494.005 59.2823 494.77 60.0484 495.715 60.0484H496.232C497.177 60.0484 497.942 59.2823 497.942 58.336V40.9411C497.942 39.9947 497.177 39.2286 496.232 39.2286H495.715Z" fill="#3A4972"/>
<path d="M394.24 170.637V16.1445C394.24 7.53721 401.201 0.563477 409.793 0.563477H404.496C395.859 0.563477 388.864 7.57101 388.864 16.2234V170.547C388.864 179.199 395.859 186.207 404.496 186.207H409.793C401.201 186.207 394.24 179.233 394.24 170.626V170.637Z" fill="#3A4972"/>
<path d="M409.793 186.781H404.496C395.566 186.781 388.301 179.503 388.301 170.558V16.2232C388.301 7.27792 395.566 0 404.496 0H409.793V1.12661C401.527 1.12661 394.802 7.86376 394.802 16.1444V170.637C394.802 178.917 401.527 185.654 409.793 185.654V186.781ZM403.832 1.13788C395.825 1.48713 389.415 8.12288 389.415 16.2232V170.547C389.415 178.647 395.825 185.283 403.832 185.632C397.883 183.255 393.666 177.43 393.666 170.625V16.1444C393.666 9.35088 397.883 3.51503 403.832 1.13788Z" fill="#3A4972"/>
<path d="M391.709 46.9914C390.978 46.9914 390.382 46.3943 390.382 45.662V26.3631C390.382 25.6308 390.978 25.0337 391.709 25.0337C392.44 25.0337 393.036 25.6308 393.036 26.3631V45.662C393.036 46.3943 392.44 46.9914 391.709 46.9914Z" fill="#CACAE5"/>
<path d="M391.709 47.5545C390.663 47.5545 389.819 46.7095 389.819 45.6618V26.3629C389.819 25.3152 390.663 24.4702 391.709 24.4702C392.755 24.4702 393.598 25.3152 393.598 26.3629V45.6618C393.598 46.7095 392.755 47.5545 391.709 47.5545ZM391.709 25.5968C391.293 25.5968 390.944 25.9348 390.944 26.3629V45.6618C390.944 46.0786 391.281 46.4279 391.709 46.4279C392.136 46.4279 392.473 46.0899 392.473 45.6618V26.3629C392.473 25.9461 392.136 25.5968 391.709 25.5968Z" fill="#3A4972"/>
<path d="M391.709 76.0578C390.978 76.0578 390.382 75.4607 390.382 74.7284V55.4295C390.382 54.6972 390.978 54.1001 391.709 54.1001C392.44 54.1001 393.036 54.6972 393.036 55.4295V74.7284C393.036 75.4607 392.44 76.0578 391.709 76.0578Z" fill="#CACAE5"/>
<path d="M391.709 76.6209C390.663 76.6209 389.819 75.776 389.819 74.7282V55.4293C389.819 54.3816 390.663 53.5366 391.709 53.5366C392.755 53.5366 393.598 54.3816 393.598 55.4293V74.7282C393.598 75.776 392.755 76.6209 391.709 76.6209ZM391.709 54.6632C391.293 54.6632 390.944 55.0012 390.944 55.4293V74.7282C390.944 75.1451 391.281 75.4943 391.709 75.4943C392.136 75.4943 392.473 75.1563 392.473 74.7282V55.4293C392.473 55.0125 392.136 54.6632 391.709 54.6632Z" fill="#3A4972"/>
<path d="M480.094 0.563477H409.793C401.201 0.563477 394.24 7.53721 394.24 16.1445V170.637C394.24 179.244 401.201 186.218 409.793 186.218H480.094C488.686 186.218 495.648 179.244 495.648 170.637V16.1445C495.648 7.53721 488.686 0.563477 480.094 0.563477Z" fill="#CACAE5"/>
<path d="M480.083 186.781H409.782C400.897 186.781 393.666 179.537 393.666 170.637V16.1444C393.666 7.24412 400.897 0 409.782 0H480.083C488.967 0 496.199 7.24412 496.199 16.1444V170.637C496.199 179.537 488.967 186.781 480.083 186.781ZM409.793 1.12661C401.527 1.12661 394.802 7.86376 394.802 16.1444V170.637C394.802 178.917 401.527 185.654 409.793 185.654H480.094C488.36 185.654 495.085 178.917 495.085 170.637V16.1444C495.085 7.86376 488.36 1.12661 480.094 1.12661H409.793Z" fill="#3A4972"/>
<path d="M444.938 13.6545C443.476 13.6545 442.295 12.4715 442.295 11.0069C442.295 9.54232 443.476 8.35938 444.938 8.35938C446.4 8.35938 447.581 9.54232 447.581 11.0069C447.581 12.4715 446.4 13.6545 444.938 13.6545ZM444.938 9.20433C443.948 9.20433 443.138 10.0155 443.138 11.0069C443.138 11.9983 443.948 12.8095 444.938 12.8095C445.927 12.8095 446.737 11.9983 446.737 11.0069C446.737 10.0155 445.927 9.20433 444.938 9.20433Z" fill="white"/>
<path d="M437.673 12.4375H427.304C426.539 12.4375 425.92 11.8178 425.92 11.0517C425.92 10.2857 426.539 9.66602 427.304 9.66602H437.673C438.438 9.66602 439.056 10.2857 439.056 11.0517C439.056 11.8178 438.438 12.4375 437.673 12.4375ZM427.304 10.4997C427 10.4997 426.764 10.7476 426.764 11.0405C426.764 11.3334 427.011 11.5813 427.304 11.5813H437.673C437.976 11.5813 438.213 11.3334 438.213 11.0405C438.213 10.7476 437.965 10.4997 437.673 10.4997H427.304Z" fill="white"/>
<path d="M462.819 12.4375H452.45C451.685 12.4375 451.067 11.8178 451.067 11.0517C451.067 10.2857 451.685 9.66602 452.45 9.66602H462.819C463.584 9.66602 464.203 10.2857 464.203 11.0517C464.203 11.8178 463.584 12.4375 462.819 12.4375ZM452.45 10.4997C452.147 10.4997 451.91 10.7476 451.91 11.0405C451.91 11.3334 452.158 11.5813 452.45 11.5813H462.819C463.123 11.5813 463.359 11.3334 463.359 11.0405C463.359 10.7476 463.112 10.4997 462.819 10.4997H452.45Z" fill="white"/>
<path d="M487.73 18.0938H402.146V170.502H487.73V18.0938Z" fill="white"/>
<path d="M487.73 171.076H402.145C401.83 171.076 401.583 170.828 401.583 170.513V18.0936C401.583 17.7781 401.83 17.5303 402.145 17.5303H487.73C488.045 17.5303 488.292 17.7781 488.292 18.0936V170.502C488.292 170.817 488.045 171.065 487.73 171.065V171.076ZM402.708 169.95H487.167V18.6569H402.708V169.938V169.95Z" fill="#3A4972"/>
<path d="M487.145 18.6567H402.73V30.3735H487.145V18.6567Z" fill="#707EA5"/>
<path d="M466.486 26.3518C465.44 26.3518 464.596 25.5069 464.596 24.4591C464.596 23.4114 465.44 22.5664 466.486 22.5664C467.532 22.5664 468.375 23.4114 468.375 24.4591C468.375 25.5069 467.532 26.3518 466.486 26.3518ZM466.486 23.4114C465.912 23.4114 465.44 23.8845 465.44 24.4591C465.44 25.0337 465.912 25.5069 466.486 25.5069C467.059 25.5069 467.531 25.0337 467.531 24.4591C467.531 23.8845 467.059 23.4114 466.486 23.4114Z" fill="white"/>
<path d="M474.122 26.3518C473.076 26.3518 472.232 25.5069 472.232 24.4591C472.232 23.4114 473.076 22.5664 474.122 22.5664C475.168 22.5664 476.011 23.4114 476.011 24.4591C476.011 25.5069 475.168 26.3518 474.122 26.3518ZM474.122 23.4114C473.548 23.4114 473.076 23.8845 473.076 24.4591C473.076 25.0337 473.548 25.5069 474.122 25.5069C474.695 25.5069 475.168 25.0337 475.168 24.4591C475.168 23.8845 474.695 23.4114 474.122 23.4114Z" fill="white"/>
<path d="M481.882 26.3518C480.836 26.3518 479.992 25.5069 479.992 24.4591C479.992 23.4114 480.836 22.5664 481.882 22.5664C482.927 22.5664 483.771 23.4114 483.771 24.4591C483.771 25.5069 482.927 26.3518 481.882 26.3518ZM481.882 23.4114C481.308 23.4114 480.836 23.8845 480.836 24.4591C480.836 25.0337 481.308 25.5069 481.882 25.5069C482.455 25.5069 482.927 25.0337 482.927 24.4591C482.927 23.8845 482.455 23.4114 481.882 23.4114Z" fill="white"/>
<path d="M442.306 48.3883H416.305C415.99 48.3883 415.742 48.1405 415.742 47.825C415.742 47.5096 415.99 47.2617 416.305 47.2617H442.306C442.621 47.2617 442.868 47.5096 442.868 47.825C442.868 48.1405 442.621 48.3883 442.306 48.3883Z" fill="url(#paint10_linear_1910_5323)"/>
<path d="M458.096 48.3883H448.806C448.492 48.3883 448.244 48.1405 448.244 47.825C448.244 47.5096 448.492 47.2617 448.806 47.2617H458.096C458.411 47.2617 458.658 47.5096 458.658 47.825C458.658 48.1405 458.411 48.3883 458.096 48.3883Z" fill="#707EA5"/>
<path d="M474.032 48.3883H465.518C465.203 48.3883 464.956 48.1405 464.956 47.825C464.956 47.5096 465.203 47.2617 465.518 47.2617H474.032C474.347 47.2617 474.594 47.5096 474.594 47.825C474.594 48.1405 474.347 48.3883 474.032 48.3883Z" fill="#707EA5"/>
<path d="M474.032 68.5543H448.03C447.715 68.5543 447.468 68.3065 447.468 67.991C447.468 67.6756 447.715 67.4277 448.03 67.4277H474.032C474.346 67.4277 474.594 67.6756 474.594 67.991C474.594 68.3065 474.346 68.5543 474.032 68.5543Z" fill="url(#paint11_linear_1910_5323)"/>
<path d="M441.541 68.5543H432.252C431.937 68.5543 431.689 68.3065 431.689 67.991C431.689 67.6756 431.937 67.4277 432.252 67.4277H441.541C441.856 67.4277 442.104 67.6756 442.104 67.991C442.104 68.3065 441.856 68.5543 441.541 68.5543Z" fill="#707EA5"/>
<path d="M424.818 68.5543H416.305C415.99 68.5543 415.742 68.3065 415.742 67.991C415.742 67.6756 415.99 67.4277 416.305 67.4277H424.818C425.133 67.4277 425.38 67.6756 425.38 67.991C425.38 68.3065 425.133 68.5543 424.818 68.5543Z" fill="#707EA5"/>
<path d="M429.688 58.3698H416.305C415.99 58.3698 415.742 58.1219 415.742 57.8065C415.742 57.491 415.99 57.2432 416.305 57.2432H429.688C430.002 57.2432 430.25 57.491 430.25 57.8065C430.25 58.1219 430.002 58.3698 429.688 58.3698Z" fill="url(#paint12_linear_1910_5323)"/>
<path d="M458.096 58.3698H435.378C435.063 58.3698 434.816 58.1219 434.816 57.8065C434.816 57.491 435.063 57.2432 435.378 57.2432H458.096C458.411 57.2432 458.658 57.491 458.658 57.8065C458.658 58.1219 458.411 58.3698 458.096 58.3698Z" fill="#707EA5"/>
<path d="M474.032 58.3698H465.518C465.203 58.3698 464.956 58.1219 464.956 57.8065C464.956 57.491 465.203 57.2432 465.518 57.2432H474.032C474.347 57.2432 474.594 57.491 474.594 57.8065C474.594 58.1219 474.347 58.3698 474.032 58.3698Z" fill="url(#paint13_linear_1910_5323)"/>
<path d="M442.306 77.5226H416.305C415.99 77.5226 415.742 77.2748 415.742 76.9593C415.742 76.6439 415.99 76.396 416.305 76.396H442.306C442.621 76.396 442.868 76.6439 442.868 76.9593C442.868 77.2748 442.621 77.5226 442.306 77.5226Z" fill="url(#paint14_linear_1910_5323)"/>
<path d="M458.096 77.5226H448.806C448.492 77.5226 448.244 77.2748 448.244 76.9593C448.244 76.6439 448.492 76.396 448.806 76.396H458.096C458.411 76.396 458.658 76.6439 458.658 76.9593C458.658 77.2748 458.411 77.5226 458.096 77.5226Z" fill="#707EA5"/>
<path d="M442.306 109.845H416.305C415.99 109.845 415.742 109.598 415.742 109.282C415.742 108.967 415.99 108.719 416.305 108.719H442.306C442.621 108.719 442.868 108.967 442.868 109.282C442.868 109.598 442.621 109.845 442.306 109.845Z" fill="url(#paint15_linear_1910_5323)"/>
<path d="M458.096 109.845H448.806C448.492 109.845 448.244 109.598 448.244 109.282C448.244 108.967 448.492 108.719 448.806 108.719H458.096C458.411 108.719 458.658 108.967 458.658 109.282C458.658 109.598 458.411 109.845 458.096 109.845Z" fill="#707EA5"/>
<path d="M474.032 77.5226H465.518C465.203 77.5226 464.956 77.2748 464.956 76.9593C464.956 76.6439 465.203 76.396 465.518 76.396H474.032C474.347 76.396 474.594 76.6439 474.594 76.9593C474.594 77.2748 474.347 77.5226 474.032 77.5226Z" fill="#707EA5"/>
<path d="M474.032 97.6886H448.03C447.715 97.6886 447.468 97.4408 447.468 97.1253C447.468 96.8099 447.715 96.562 448.03 96.562H474.032C474.346 96.562 474.594 96.8099 474.594 97.1253C474.594 97.4408 474.346 97.6886 474.032 97.6886Z" fill="url(#paint16_linear_1910_5323)"/>
<path d="M441.541 97.6886H432.252C431.937 97.6886 431.689 97.4408 431.689 97.1253C431.689 96.8099 431.937 96.562 432.252 96.562H441.541C441.856 96.562 442.104 96.8099 442.104 97.1253C442.104 97.4408 441.856 97.6886 441.541 97.6886Z" fill="#707EA5"/>
<path d="M424.818 97.6886H416.305C415.99 97.6886 415.742 97.4408 415.742 97.1253C415.742 96.8099 415.99 96.562 416.305 96.562H424.818C425.133 96.562 425.38 96.8099 425.38 97.1253C425.38 97.4408 425.133 97.6886 424.818 97.6886Z" fill="#707EA5"/>
<path d="M441.541 120.773H432.252C431.937 120.773 431.689 120.525 431.689 120.21C431.689 119.894 431.937 119.646 432.252 119.646H441.541C441.856 119.646 442.104 119.894 442.104 120.21C442.104 120.525 441.856 120.773 441.541 120.773Z" fill="url(#paint17_linear_1910_5323)"/>
<path d="M424.818 120.773H416.305C415.99 120.773 415.742 120.525 415.742 120.21C415.742 119.894 415.99 119.646 416.305 119.646H424.818C425.133 119.646 425.38 119.894 425.38 120.21C425.38 120.525 425.133 120.773 424.818 120.773Z" fill="url(#paint18_linear_1910_5323)"/>
<path d="M429.688 87.5041H416.305C415.99 87.5041 415.742 87.2562 415.742 86.9407C415.742 86.6253 415.99 86.3774 416.305 86.3774H429.688C430.002 86.3774 430.25 86.6253 430.25 86.9407C430.25 87.2562 430.002 87.5041 429.688 87.5041Z" fill="url(#paint19_linear_1910_5323)"/>
<path d="M458.096 87.5041H435.378C435.063 87.5041 434.816 87.2562 434.816 86.9407C434.816 86.6253 435.063 86.3774 435.378 86.3774H458.096C458.411 86.3774 458.658 86.6253 458.658 86.9407C458.658 87.2562 458.411 87.5041 458.096 87.5041Z" fill="#707EA5"/>
<path d="M474.031 87.5041H465.518C465.203 87.5041 464.956 87.2562 464.956 86.9407C464.956 86.6253 465.203 86.3774 465.518 86.3774H474.031C474.346 86.3774 474.594 86.6253 474.594 86.9407C474.594 87.2562 474.346 87.5041 474.031 87.5041Z" fill="url(#paint20_linear_1910_5323)"/>
<path d="M438.842 131.498H416.124C415.809 131.498 415.562 131.25 415.562 130.935C415.562 130.619 415.809 130.372 416.124 130.372H438.842C439.157 130.372 439.404 130.619 439.404 130.935C439.404 131.25 439.157 131.498 438.842 131.498Z" fill="#707EA5"/>
<path d="M424.694 141.548H416.18C415.866 141.548 415.618 141.3 415.618 140.984C415.618 140.669 415.866 140.421 416.18 140.421H424.694C425.009 140.421 425.256 140.669 425.256 140.984C425.256 141.3 425.009 141.548 424.694 141.548Z" fill="url(#paint21_linear_1910_5323)"/>
<path d="M2.28319 334.987H121.022C122.283 334.987 123.305 333.963 123.305 332.7L123.305 249.252C123.305 247.989 122.283 246.965 121.022 246.965H2.28319C1.02232 246.965 0.000190735 247.989 0.000190735 249.252L0.000190735 332.7C0.000190735 333.963 1.02232 334.987 2.28319 334.987Z" fill="#CACAE5"/>
<path d="M130.209 255.11L6.91623 255.11V243.011C6.91623 241.501 8.14207 240.284 9.63783 240.284H126.678C128.624 240.284 130.198 241.861 130.198 243.81V255.11H130.209Z" fill="url(#paint22_linear_1910_5323)"/>
<path d="M130.761 255.685H6.34277V243.022C6.34277 241.208 7.81604 239.732 9.62669 239.732H126.678C128.927 239.732 130.761 241.568 130.761 243.822V255.685ZM7.4674 254.558H129.636V243.822C129.636 242.188 128.309 240.859 126.678 240.859H9.63794C8.44583 240.859 7.47865 241.827 7.47865 243.022V254.558H7.4674Z" fill="#3A4972"/>
<path d="M23.1109 250.378C21.5477 250.378 20.2769 249.105 20.2769 247.528C20.2769 245.951 21.5477 244.678 23.1109 244.678C24.6742 244.678 25.945 245.951 25.945 247.528C25.945 249.105 24.6742 250.378 23.1109 250.378ZM23.1109 245.816C22.1662 245.816 21.4015 246.593 21.4015 247.539C21.4015 248.486 22.1662 249.263 23.1109 249.263C24.0556 249.263 24.8204 248.486 24.8204 247.539C24.8204 246.593 24.0556 245.816 23.1109 245.816Z" fill="white"/>
<path d="M31.9845 250.378C30.4212 250.378 29.1504 249.105 29.1504 247.528C29.1504 245.951 30.4212 244.678 31.9845 244.678C33.5477 244.678 34.8185 245.951 34.8185 247.528C34.8185 249.105 33.5477 250.378 31.9845 250.378ZM31.9845 245.816C31.0398 245.816 30.275 246.593 30.275 247.539C30.275 248.486 31.0398 249.263 31.9845 249.263C32.9291 249.263 33.6939 248.486 33.6939 247.539C33.6939 246.593 32.9291 245.816 31.9845 245.816Z" fill="white"/>
<path d="M14.294 250.378C12.7308 250.378 11.46 249.105 11.46 247.528C11.46 245.951 12.7308 244.678 14.294 244.678C15.8573 244.678 17.1281 245.951 17.1281 247.528C17.1281 249.105 15.8573 250.378 14.294 250.378ZM14.294 245.816C13.3493 245.816 12.5846 246.593 12.5846 247.539C12.5846 248.486 13.3493 249.263 14.294 249.263C15.2387 249.263 16.0035 248.486 16.0035 247.539C16.0035 246.593 15.2387 245.816 14.294 245.816Z" fill="white"/>
<path d="M7.25368 327.709H129.771C129.988 327.709 130.165 327.532 130.165 327.315V255.527C130.165 255.309 129.988 255.133 129.771 255.133H7.25368C7.03629 255.133 6.86005 255.309 6.86005 255.527L6.86005 327.315C6.86005 327.532 7.03629 327.709 7.25368 327.709Z" fill="white"/>
<path d="M129.771 328.272H7.25379C6.72521 328.272 6.29785 327.844 6.29785 327.315V255.527C6.29785 254.997 6.72521 254.569 7.25379 254.569H129.771C130.3 254.569 130.727 254.997 130.727 255.527V327.315C130.727 327.844 130.3 328.272 129.771 328.272ZM7.42248 327.146H129.602V255.696H7.42248V327.146Z" fill="#3A4972"/>
<path d="M114.093 273.282H58.6717C58.3568 273.282 58.1094 273.035 58.1094 272.719C58.1094 272.404 58.3568 272.156 58.6717 272.156H114.093C114.408 272.156 114.656 272.404 114.656 272.719C114.656 273.035 114.408 273.282 114.093 273.282Z" fill="#707EA5"/>
<path d="M78.1278 281.71H58.6605C58.3456 281.71 58.0981 281.462 58.0981 281.146C58.0981 280.831 58.3456 280.583 58.6605 280.583H78.1278C78.4427 280.583 78.6901 280.831 78.6901 281.146C78.6901 281.462 78.4427 281.71 78.1278 281.71Z" fill="url(#paint23_linear_1910_5323)"/>
<path d="M109.786 281.71H86.1463C85.8314 281.71 85.584 281.462 85.584 281.146C85.584 280.831 85.8314 280.583 86.1463 280.583H109.786C110.101 280.583 110.348 280.831 110.348 281.146C110.348 281.462 110.101 281.71 109.786 281.71Z" fill="#707EA5"/>
<path d="M94.1875 307.272H58.6605C58.3456 307.272 58.0981 307.024 58.0981 306.709C58.0981 306.393 58.3456 306.146 58.6605 306.146H94.1875C94.5024 306.146 94.7499 306.393 94.7499 306.709C94.7499 307.024 94.5024 307.272 94.1875 307.272Z" fill="url(#paint24_linear_1910_5323)"/>
<path d="M114.577 290.565H58.6605C58.3456 290.565 58.0981 290.317 58.0981 290.001C58.0981 289.686 58.3456 289.438 58.6605 289.438H114.577C114.892 289.438 115.139 289.686 115.139 290.001C115.139 290.317 114.892 290.565 114.577 290.565Z" fill="url(#paint25_linear_1910_5323)"/>
<path d="M76.3846 298.981H58.6717C58.3568 298.981 58.1094 298.733 58.1094 298.417C58.1094 298.102 58.3568 297.854 58.6717 297.854H76.3846C76.6995 297.854 76.9469 298.102 76.9469 298.417C76.9469 298.733 76.6995 298.981 76.3846 298.981Z" fill="#707EA5"/>
<path d="M114.094 298.981H81.8279C81.513 298.981 81.2656 298.733 81.2656 298.417C81.2656 298.102 81.513 297.854 81.8279 297.854H114.094C114.408 297.854 114.656 298.102 114.656 298.417C114.656 298.733 114.408 298.981 114.094 298.981Z" fill="url(#paint26_linear_1910_5323)"/>
<path d="M20.6483 288.458C20.6483 281.597 25.608 275.896 32.1196 274.747L31.5798 271.559C22.2566 273.136 15.9811 281.991 17.5669 291.331L20.8508 290.767C20.7271 290.013 20.6483 289.246 20.6483 288.458Z" fill="url(#paint27_linear_1910_5323)"/>
<path d="M34.5713 302.405C27.6661 302.405 21.9642 297.369 20.862 290.767L17.5781 291.33C19.1526 300.67 27.9922 306.957 37.3154 305.368L36.7868 302.213C36.067 302.326 35.336 302.405 34.5825 302.405H34.5713Z" fill="#CACAE5"/>
<path d="M51.3169 285.596C49.7424 276.256 40.9028 269.97 31.5796 271.559L32.1194 274.747C32.9179 274.6 33.7276 274.522 34.5599 274.522C42.2411 274.522 48.4715 280.763 48.4715 288.458C48.4715 295.409 43.3995 301.143 36.7529 302.202L37.2815 305.357C44.2767 304.174 49.5512 298.89 51.0807 292.39C51.3393 291.308 51.4855 290.193 51.5305 289.044C51.5643 287.906 51.4968 286.745 51.2944 285.574L51.3169 285.596Z" fill="#707EA5"/>
<path d="M125.678 267.593C136.839 267.593 145.887 258.529 145.887 247.348C145.887 236.167 136.839 227.103 125.678 227.103C114.516 227.103 105.468 236.167 105.468 247.348C105.468 258.529 114.516 267.593 125.678 267.593Z" fill="#3A4972"/>
<path d="M125.678 268.157C114.229 268.157 104.906 258.817 104.906 247.348C104.906 235.879 114.229 226.54 125.678 226.54C137.126 226.54 146.45 235.879 146.45 247.348C146.45 258.817 137.126 268.157 125.678 268.157ZM125.678 227.666C114.847 227.666 106.03 236.499 106.03 247.348C106.03 258.197 114.847 267.03 125.678 267.03C136.508 267.03 145.325 258.197 145.325 247.348C145.325 236.499 136.508 227.666 125.678 227.666Z" fill="#3A4972"/>
<path d="M127.488 265.622C138.65 265.622 147.698 256.558 147.698 245.377C147.698 234.195 138.65 225.131 127.488 225.131C116.327 225.131 107.279 234.195 107.279 245.377C107.279 256.558 116.327 265.622 127.488 265.622Z" fill="#707EA5"/>
<path d="M127.488 266.185C116.039 266.185 106.716 256.845 106.716 245.376C106.716 233.907 116.039 224.568 127.488 224.568C138.937 224.568 148.26 233.907 148.26 245.376C148.26 256.845 138.937 266.185 127.488 266.185ZM127.488 225.694C116.658 225.694 107.841 234.527 107.841 245.376C107.841 256.226 116.658 265.058 127.488 265.058C138.318 265.058 147.136 256.226 147.136 245.376C147.136 234.527 138.318 225.694 127.488 225.694Z" fill="#3A4972"/>
<path d="M136.789 254.807C136.789 249.534 132.527 245.264 127.263 245.264C122 245.264 117.738 249.534 117.738 254.807C117.738 254.84 136.778 254.852 136.778 254.807H136.789Z" fill="white"/>
<path d="M128.298 255.403C125.756 255.403 123.125 255.403 121.112 255.403C118.487 255.403 117.175 255.208 117.175 254.818C117.175 249.252 121.696 244.712 127.263 244.712C132.83 244.712 137.351 249.241 137.351 254.818C137.351 255.216 134.333 255.415 128.298 255.415V255.403ZM118.322 254.254C121.1 254.277 133.471 254.277 136.204 254.254C135.923 249.556 132.02 245.827 127.263 245.827C122.506 245.827 118.604 249.556 118.322 254.254Z" fill="#3A4972"/>
<path d="M121.921 238.527C121.921 241.524 124.339 243.946 127.331 243.946C130.322 243.946 132.74 241.524 132.74 238.527C132.74 235.53 130.322 233.108 127.331 233.108C124.339 233.108 121.921 235.53 121.921 238.527Z" fill="white"/>
<path d="M127.331 244.509C124.036 244.509 121.359 241.828 121.359 238.527C121.359 235.226 124.036 232.544 127.331 232.544C130.626 232.544 133.302 235.226 133.302 238.527C133.302 241.828 130.626 244.509 127.331 244.509ZM127.331 233.671C124.654 233.671 122.484 235.845 122.484 238.527C122.484 241.208 124.654 243.382 127.331 243.382C130.007 243.382 132.178 241.208 132.178 238.527C132.178 235.845 130.007 233.671 127.331 233.671Z" fill="#3A4972"/>
<path d="M342.597 198.588H544.974C548.033 198.588 550.518 201.078 550.518 204.143V344.473C550.518 345.544 549.652 346.411 548.584 346.411H338.998C337.929 346.411 337.063 345.544 337.063 344.473V204.143C337.063 201.078 339.549 198.588 342.608 198.588H342.597Z" fill="#3A4972"/>
<path d="M548.573 346.974H338.986C337.603 346.974 336.49 345.848 336.49 344.473V204.142C336.49 200.774 339.234 198.025 342.596 198.025H544.974C548.336 198.025 551.081 200.774 551.081 204.142V344.473C551.081 345.859 549.956 346.974 548.584 346.974H548.573ZM342.596 199.14C339.852 199.14 337.614 201.382 337.614 204.131V344.462C337.614 345.217 338.233 345.837 338.986 345.837H548.573C549.326 345.837 549.945 345.217 549.945 344.462V204.131C549.945 201.382 547.707 199.14 544.963 199.14H342.585H342.596Z" fill="#F2F1F6"/>
<path d="M534.909 212.761H352.662V332.227H534.909V212.761Z" fill="white"/>
<path d="M534.897 332.79H352.651C352.336 332.79 352.088 332.543 352.088 332.227V212.761C352.088 212.446 352.336 212.198 352.651 212.198H534.897C535.212 212.198 535.459 212.446 535.459 212.761V332.227C535.459 332.543 535.212 332.79 534.897 332.79ZM353.213 331.664H534.335V213.324H353.213V331.664Z" fill="#3A4972"/>
<path d="M443.779 208.04C442.565 208.04 441.586 207.049 441.586 205.843C441.586 204.638 442.576 203.646 443.779 203.646C444.983 203.646 445.972 204.638 445.972 205.843C445.972 207.049 444.983 208.04 443.779 208.04ZM443.779 204.762C443.183 204.762 442.711 205.246 442.711 205.832C442.711 206.418 443.195 206.902 443.779 206.902C444.364 206.902 444.848 206.418 444.848 205.832C444.848 205.246 444.364 204.762 443.779 204.762Z" fill="white"/>
<path d="M302.121 345.296H585.449V356.979C585.449 361.091 582.109 364.437 578.004 364.437H309.566C305.461 364.437 302.121 361.091 302.121 356.979V345.296Z" fill="#CACAE5"/>
<path d="M577.993 365H309.555C305.135 365 301.547 361.406 301.547 356.979V345.296C301.547 344.98 301.795 344.732 302.11 344.732H585.438C585.753 344.732 586 344.98 586 345.296V356.979C586 361.406 582.413 365 577.993 365ZM302.672 345.859V356.979C302.672 360.787 305.765 363.874 309.555 363.874H577.993C581.783 363.874 584.876 360.775 584.876 356.979V345.859H302.672Z" fill="#3A4972"/>
<path d="M582.739 360.516H304.82C304.505 360.516 304.258 360.268 304.258 359.953C304.258 359.638 304.505 359.39 304.82 359.39H582.739C583.054 359.39 583.301 359.638 583.301 359.953C583.301 360.268 583.054 360.516 582.739 360.516Z" fill="#3A4972"/>
<path d="M470.827 346.49H416.744V352.473H470.827V346.49Z" fill="white"/>
<path d="M470.816 353.036H416.743C416.429 353.036 416.181 352.788 416.181 352.472V346.49C416.181 346.175 416.429 345.927 416.743 345.927H470.816C471.131 345.927 471.378 346.175 471.378 346.49V352.472C471.378 352.788 471.131 353.036 470.816 353.036ZM417.306 351.909H470.253V347.053H417.306V351.909Z" fill="#3A4972"/>
<path d="M383.083 316.59H493.027C494.207 316.59 495.164 315.631 495.164 314.449V235.237C495.164 234.055 494.207 233.097 493.027 233.097H383.083C381.903 233.097 380.946 234.055 380.946 235.237V314.449C380.946 315.631 381.903 316.59 383.083 316.59Z" fill="#CACAE5"/>
<path d="M501.552 240.848H387.346V229.345C387.346 227.937 388.493 226.788 389.898 226.788H498.245C500.067 226.788 501.541 228.275 501.541 230.089V240.848H501.552Z" fill="url(#paint28_linear_1910_5323)"/>
<path d="M502.114 241.411H386.783V229.345C386.783 227.621 388.178 226.224 389.898 226.224H498.245C500.371 226.224 502.103 227.959 502.103 230.1V241.422L502.114 241.411ZM387.908 240.284H500.989V230.088C500.989 228.579 499.764 227.339 498.257 227.339H389.91C388.808 227.339 387.919 228.229 387.919 229.334V240.273L387.908 240.284Z" fill="#3A4972"/>
<path d="M402.865 236.375C401.369 236.375 400.144 235.147 400.144 233.648C400.144 232.15 401.369 230.922 402.865 230.922C404.361 230.922 405.587 232.15 405.587 233.648C405.587 235.147 404.372 236.375 402.865 236.375ZM402.865 232.048C401.988 232.048 401.268 232.77 401.268 233.648C401.268 234.527 401.988 235.248 402.865 235.248C403.742 235.248 404.462 234.527 404.462 233.648C404.462 232.77 403.742 232.048 402.865 232.048Z" fill="white"/>
<path d="M411.288 236.375C409.793 236.375 408.567 235.147 408.567 233.648C408.567 232.15 409.781 230.922 411.288 230.922C412.795 230.922 414.01 232.15 414.01 233.648C414.01 235.147 412.795 236.375 411.288 236.375ZM411.288 232.048C410.411 232.048 409.692 232.77 409.692 233.648C409.692 234.527 410.411 235.248 411.288 235.248C412.166 235.248 412.885 234.527 412.885 233.648C412.885 232.77 412.166 232.048 411.288 232.048Z" fill="white"/>
<path d="M394.498 236.375C393.002 236.375 391.776 235.147 391.776 233.648C391.776 232.15 392.991 230.922 394.498 230.922C396.005 230.922 397.22 232.15 397.22 233.648C397.22 235.147 396.005 236.375 394.498 236.375ZM394.498 232.048C393.621 232.048 392.901 232.77 392.901 233.648C392.901 234.527 393.621 235.248 394.498 235.248C395.375 235.248 396.095 234.527 396.095 233.648C396.095 232.77 395.375 232.048 394.498 232.048Z" fill="white"/>
<path d="M387.672 309.695H501.147C501.352 309.695 501.518 309.528 501.518 309.323V241.219C501.518 241.014 501.352 240.848 501.147 240.848H387.672C387.467 240.848 387.301 241.014 387.301 241.219V309.323C387.301 309.528 387.467 309.695 387.672 309.695Z" fill="white"/>
<path d="M501.147 310.258H387.672C387.154 310.258 386.738 309.841 386.738 309.323V241.231C386.738 240.712 387.154 240.295 387.672 240.295H501.147C501.664 240.295 502.08 240.712 502.08 241.231V309.323C502.08 309.841 501.664 310.258 501.147 310.258ZM387.863 309.131H500.956V241.411H387.863V309.131Z" fill="#3A4972"/>
<path d="M490.598 254.75H465.743C465.638 254.75 465.552 254.836 465.552 254.942V293.596C465.552 293.701 465.638 293.787 465.743 293.787H490.598C490.703 293.787 490.789 293.701 490.789 293.596V254.942C490.789 254.836 490.703 254.75 490.598 254.75Z" fill="white"/>
<path d="M490.598 294.362H465.732C465.316 294.362 464.99 294.024 464.99 293.607V254.941C464.99 254.525 465.327 254.187 465.732 254.187H490.598C491.014 254.187 491.351 254.525 491.351 254.941V293.607C491.351 294.024 491.014 294.362 490.598 294.362ZM466.103 293.235H490.215V255.324H466.103V293.235Z" fill="#CACAE5"/>
<path d="M490.542 293.866C490.362 293.866 490.182 293.776 490.069 293.607L465.699 255.809C465.53 255.55 465.609 255.201 465.867 255.032C466.126 254.863 466.475 254.942 466.643 255.201L491.014 292.999C491.183 293.258 491.104 293.607 490.845 293.776C490.755 293.832 490.643 293.866 490.542 293.866Z" fill="#CACAE5"/>
<path d="M465.732 294.362C465.631 294.362 465.529 294.328 465.428 294.272C465.17 294.103 465.091 293.753 465.26 293.494L489.574 255.077C489.743 254.818 490.091 254.739 490.35 254.908C490.609 255.077 490.687 255.426 490.519 255.685L466.204 294.103C466.103 294.271 465.912 294.362 465.732 294.362Z" fill="#CACAE5"/>
<path d="M455.014 258.107H402.438C402.123 258.107 401.875 257.859 401.875 257.544C401.875 257.228 402.123 256.98 402.438 256.98H455.014C455.329 256.98 455.577 257.228 455.577 257.544C455.577 257.859 455.329 258.107 455.014 258.107Z" fill="#707EA5"/>
<path d="M420.904 266.095H402.438C402.123 266.095 401.875 265.847 401.875 265.532C401.875 265.216 402.123 264.968 402.438 264.968H420.904C421.219 264.968 421.467 265.216 421.467 265.532C421.467 265.847 421.219 266.095 420.904 266.095Z" fill="url(#paint29_linear_1910_5323)"/>
<path d="M450.932 266.095H428.507C428.192 266.095 427.944 265.847 427.944 265.532C427.944 265.216 428.192 264.968 428.507 264.968H450.932C451.247 264.968 451.494 265.216 451.494 265.532C451.494 265.847 451.247 266.095 450.932 266.095Z" fill="#707EA5"/>
<path d="M436.132 290.34H402.438C402.123 290.34 401.875 290.092 401.875 289.776C401.875 289.461 402.123 289.213 402.438 289.213H436.132C436.447 289.213 436.694 289.461 436.694 289.776C436.694 290.092 436.447 290.34 436.132 290.34Z" fill="url(#paint30_linear_1910_5323)"/>
<path d="M455.475 274.488H402.438C402.123 274.488 401.875 274.24 401.875 273.925C401.875 273.609 402.123 273.361 402.438 273.361H455.475C455.79 273.361 456.038 273.609 456.038 273.925C456.038 274.24 455.79 274.488 455.475 274.488Z" fill="url(#paint31_linear_1910_5323)"/>
<path d="M419.24 282.476H402.438C402.123 282.476 401.875 282.228 401.875 281.912C401.875 281.597 402.123 281.349 402.438 281.349H419.24C419.555 281.349 419.802 281.597 419.802 281.912C419.802 282.228 419.555 282.476 419.24 282.476Z" fill="#707EA5"/>
<path d="M455.014 282.476H424.413C424.098 282.476 423.851 282.228 423.851 281.912C423.851 281.597 424.098 281.349 424.413 281.349H455.014C455.329 281.349 455.576 281.597 455.576 281.912C455.576 282.228 455.329 282.476 455.014 282.476Z" fill="url(#paint32_linear_1910_5323)"/>
<path d="M429.845 273.046C429.879 271.965 429.811 270.872 429.62 269.756C429.811 270.86 429.879 271.965 429.845 273.046Z" fill="white"/>
<path d="M577.408 202.193C556.175 201.393 549.438 188.944 548.482 186.917H548.336C547.38 188.944 540.644 201.382 519.411 202.193C519.411 202.193 514.912 245.985 547.763 253.849H549.056C581.906 245.985 577.408 202.193 577.408 202.193Z" fill="#CACAE5"/>
<path d="M549.123 254.412H547.628C514.676 246.514 518.803 202.576 518.848 202.137L518.893 201.652L519.377 201.63C540.07 200.853 546.694 189.046 547.819 186.68L547.976 186.353H548.831L548.988 186.68C550.102 189.034 556.726 200.853 577.43 201.63L577.914 201.652L577.959 202.137C578.004 202.576 582.131 246.514 549.18 254.4H549.112L549.123 254.412ZM547.83 253.285H548.988C579.072 246.03 577.239 207.522 576.879 202.734C557.749 201.844 550.417 191.637 548.404 188.009C546.391 191.637 539.058 201.844 519.928 202.734C519.579 207.522 517.746 246.03 547.819 253.285H547.83Z" fill="#CACAE5"/>
<path d="M575.159 198.036C553.892 197.236 547.144 184.765 546.188 182.737H546.042C545.086 184.765 538.327 197.236 517.072 198.036C517.072 198.036 512.562 241.907 545.468 249.782H546.762C579.668 241.907 575.159 198.036 575.159 198.036Z" fill="#707EA5"/>
<path d="M546.762 250.345H545.469C545.469 250.345 545.379 250.345 545.334 250.333C512.326 242.436 516.464 198.43 516.509 197.98C516.543 197.698 516.768 197.484 517.049 197.473C537.787 196.684 544.423 184.855 545.536 182.5C545.626 182.309 545.828 182.173 546.042 182.173H546.188C546.402 182.173 546.604 182.297 546.694 182.5C547.808 184.866 554.443 196.695 575.181 197.473C575.462 197.473 575.687 197.698 575.721 197.98C575.766 198.419 579.905 242.425 546.897 250.333C546.852 250.333 546.807 250.345 546.762 250.345ZM545.536 249.218H546.706C576.834 241.951 575.001 203.365 574.653 198.577C555.478 197.687 548.134 187.457 546.121 183.818C544.108 187.446 536.764 197.676 517.589 198.577C517.24 203.365 515.407 241.951 545.536 249.218Z" fill="#3A4972"/>
<path d="M526.181 226.494C529.375 234.031 535.167 240.971 545.592 243.461H546.649C573.348 237.073 569.682 201.484 569.682 201.484C552.43 200.83 546.953 190.724 546.177 189.08H546.065C545.581 190.105 543.287 194.397 537.472 197.653" fill="#707EA5"/>
<path d="M546.638 244.024H545.581C545.581 244.024 545.491 244.024 545.446 244.013C536.247 241.805 529.589 235.992 525.652 226.72C525.529 226.438 525.664 226.1 525.945 225.976C526.226 225.852 526.563 225.987 526.687 226.269C530.466 235.169 536.843 240.768 545.637 242.898H546.559C570.716 237.062 569.434 206.272 569.142 202.024C553.892 201.281 547.864 193.259 546.098 190.172C545.075 191.952 542.623 195.388 537.731 198.137C537.461 198.284 537.124 198.194 536.966 197.923C536.82 197.653 536.91 197.315 537.18 197.157C542.904 193.946 545.142 189.665 545.536 188.832C545.626 188.64 545.828 188.505 546.042 188.505H546.155C546.368 188.505 546.571 188.629 546.661 188.832C547.56 190.736 552.914 200.289 569.682 200.92C569.963 200.92 570.188 201.145 570.222 201.427C570.255 201.788 573.618 237.58 546.762 244.002C546.717 244.002 546.672 244.013 546.627 244.013L546.638 244.024Z" fill="white"/>
<path d="M528.228 200.875C526.496 201.19 524.606 201.405 522.548 201.483C522.548 201.483 521.986 206.947 522.908 213.977" fill="#707EA5"/>
<path d="M522.908 214.541C522.627 214.541 522.391 214.338 522.346 214.056C521.424 207.037 521.975 201.483 521.986 201.427C522.02 201.145 522.245 200.931 522.526 200.92C524.46 200.852 526.35 200.65 528.115 200.323C528.408 200.267 528.711 200.469 528.768 200.774C528.824 201.078 528.621 201.371 528.318 201.427C526.642 201.731 524.876 201.934 523.066 202.024C522.953 203.5 522.717 208.209 523.471 213.91C523.516 214.214 523.291 214.507 522.987 214.541C522.964 214.541 522.942 214.541 522.908 214.541Z" fill="white"/>
<path d="M546.109 232.86C553.6 232.86 559.672 226.777 559.672 219.273C559.672 211.769 553.6 205.686 546.109 205.686C538.619 205.686 532.546 211.769 532.546 219.273C532.546 226.777 538.619 232.86 546.109 232.86Z" fill="#707EA5"/>
<path d="M546.11 233.277C538.406 233.277 532.13 226.99 532.13 219.273C532.13 211.556 538.406 205.269 546.11 205.269C553.813 205.269 560.089 211.556 560.089 219.273C560.089 226.99 553.813 233.277 546.11 233.277ZM546.11 206.114C538.867 206.114 532.974 212.017 532.974 219.273C532.974 226.528 538.867 232.432 546.11 232.432C553.352 232.432 559.245 226.528 559.245 219.273C559.245 212.017 553.352 206.114 546.11 206.114Z" fill="white"/>
<path d="M546.11 229.165C551.563 229.165 555.984 224.736 555.984 219.273C555.984 213.81 551.563 209.381 546.11 209.381C540.656 209.381 536.235 213.81 536.235 219.273C536.235 224.736 540.656 229.165 546.11 229.165Z" fill="white"/>
<path d="M546.109 229.717C540.351 229.717 535.673 225.03 535.673 219.262C535.673 213.493 540.351 208.807 546.109 208.807C551.868 208.807 556.546 213.493 556.546 219.262C556.546 225.03 551.868 229.717 546.109 229.717ZM546.109 209.933C540.981 209.933 536.797 214.113 536.797 219.262C536.797 224.41 540.97 228.59 546.109 228.59C551.249 228.59 555.421 224.41 555.421 219.262C555.421 214.113 551.249 209.933 546.109 209.933Z" fill="#3A4972"/>
<path d="M546.312 223.486C545.907 223.486 545.502 223.329 545.188 223.013L541.015 218.833C540.397 218.214 540.397 217.2 541.015 216.58C541.634 215.961 542.646 215.961 543.264 216.58L546.312 219.633L555.298 210.632C555.917 210.012 556.929 210.012 557.547 210.632C558.166 211.251 558.166 212.265 557.547 212.885L547.426 223.024C547.111 223.34 546.706 223.498 546.301 223.498L546.312 223.486Z" fill="#3A4972"/>
</g>
<defs>
<linearGradient id="paint0_linear_1910_5323" x1="181.882" y1="177.016" x2="181.309" y2="177.016" gradientUnits="userSpaceOnUse">
<stop stop-color="#D6545B"/>
<stop offset="1" stop-color="#FC946D"/>
</linearGradient>
<linearGradient id="paint1_linear_1910_5323" x1="227.542" y1="225.509" x2="226.969" y2="225.509" gradientUnits="userSpaceOnUse">
<stop stop-color="#D6545B"/>
<stop offset="1" stop-color="#FC946D"/>
</linearGradient>
<linearGradient id="paint2_linear_1910_5323" x1="161.996" y1="242.351" x2="154.676" y2="242.877" gradientUnits="userSpaceOnUse">
<stop stop-color="#D6545B"/>
<stop offset="1" stop-color="#FC946D"/>
</linearGradient>
<linearGradient id="paint3_linear_1910_5323" x1="238.145" y1="158.506" x2="174.11" y2="159.921" gradientUnits="userSpaceOnUse">
<stop stop-color="#D6545B"/>
<stop offset="1" stop-color="#FC946D"/>
</linearGradient>
<linearGradient id="paint4_linear_1910_5323" x1="315.137" y1="160.413" x2="308.241" y2="160.88" gradientUnits="userSpaceOnUse">
<stop stop-color="#D6545B"/>
<stop offset="1" stop-color="#FC946D"/>
</linearGradient>
<linearGradient id="paint5_linear_1910_5323" x1="324.856" y1="176.771" x2="312.861" y2="178.196" gradientUnits="userSpaceOnUse">
<stop stop-color="#D6545B"/>
<stop offset="1" stop-color="#FC946D"/>
</linearGradient>
<linearGradient id="paint6_linear_1910_5323" x1="337.204" y1="166.08" x2="319.001" y2="169.425" gradientUnits="userSpaceOnUse">
<stop stop-color="#D6545B"/>
<stop offset="1" stop-color="#FC946D"/>
</linearGradient>
<linearGradient id="paint7_linear_1910_5323" x1="337.71" y1="171.465" x2="326.741" y2="172.654" gradientUnits="userSpaceOnUse">
<stop stop-color="#D6545B"/>
<stop offset="1" stop-color="#FC946D"/>
</linearGradient>
<linearGradient id="paint8_linear_1910_5323" x1="285.363" y1="163.437" x2="280.535" y2="163.457" gradientUnits="userSpaceOnUse">
<stop stop-color="#D6545B"/>
<stop offset="1" stop-color="#FC946D"/>
</linearGradient>
<linearGradient id="paint9_linear_1910_5323" x1="573.015" y1="138.552" x2="511.294" y2="138.898" gradientUnits="userSpaceOnUse">
<stop stop-color="#D6545B"/>
<stop offset="1" stop-color="#FC946D"/>
</linearGradient>
<linearGradient id="paint10_linear_1910_5323" x1="441.417" y1="48.1014" x2="427.832" y2="49.9366" gradientUnits="userSpaceOnUse">
<stop stop-color="#D6545B"/>
<stop offset="1" stop-color="#FC946D"/>
</linearGradient>
<linearGradient id="paint11_linear_1910_5323" x1="473.143" y1="68.2674" x2="459.558" y2="70.1026" gradientUnits="userSpaceOnUse">
<stop stop-color="#D6545B"/>
<stop offset="1" stop-color="#FC946D"/>
</linearGradient>
<linearGradient id="paint12_linear_1910_5323" x1="429.474" y1="58.0828" x2="422.114" y2="58.6146" gradientUnits="userSpaceOnUse">
<stop stop-color="#D6545B"/>
<stop offset="1" stop-color="#FC946D"/>
</linearGradient>
<linearGradient id="paint13_linear_1910_5323" x1="474.079" y1="58.0828" x2="469.175" y2="58.3182" gradientUnits="userSpaceOnUse">
<stop stop-color="#D6545B"/>
<stop offset="1" stop-color="#FC946D"/>
</linearGradient>
<linearGradient id="paint14_linear_1910_5323" x1="441.417" y1="77.2357" x2="427.832" y2="79.0709" gradientUnits="userSpaceOnUse">
<stop stop-color="#D6545B"/>
<stop offset="1" stop-color="#FC946D"/>
</linearGradient>
<linearGradient id="paint15_linear_1910_5323" x1="441.417" y1="109.558" x2="427.832" y2="111.394" gradientUnits="userSpaceOnUse">
<stop stop-color="#D6545B"/>
<stop offset="1" stop-color="#FC946D"/>
</linearGradient>
<linearGradient id="paint16_linear_1910_5323" x1="473.143" y1="97.4017" x2="459.558" y2="99.2369" gradientUnits="userSpaceOnUse">
<stop stop-color="#D6545B"/>
<stop offset="1" stop-color="#FC946D"/>
</linearGradient>
<linearGradient id="paint17_linear_1910_5323" x1="441.546" y1="120.486" x2="436.25" y2="120.761" gradientUnits="userSpaceOnUse">
<stop stop-color="#D6545B"/>
<stop offset="1" stop-color="#FC946D"/>
</linearGradient>
<linearGradient id="paint18_linear_1910_5323" x1="424.865" y1="120.486" x2="419.961" y2="120.722" gradientUnits="userSpaceOnUse">
<stop stop-color="#D6545B"/>
<stop offset="1" stop-color="#FC946D"/>
</linearGradient>
<linearGradient id="paint19_linear_1910_5323" x1="429.474" y1="87.2171" x2="422.114" y2="87.7489" gradientUnits="userSpaceOnUse">
<stop stop-color="#D6545B"/>
<stop offset="1" stop-color="#FC946D"/>
</linearGradient>
<linearGradient id="paint20_linear_1910_5323" x1="474.078" y1="87.2171" x2="469.174" y2="87.4525" gradientUnits="userSpaceOnUse">
<stop stop-color="#D6545B"/>
<stop offset="1" stop-color="#FC946D"/>
</linearGradient>
<linearGradient id="paint21_linear_1910_5323" x1="424.741" y1="141.261" x2="419.837" y2="141.496" gradientUnits="userSpaceOnUse">
<stop stop-color="#D6545B"/>
<stop offset="1" stop-color="#FC946D"/>
</linearGradient>
<linearGradient id="paint22_linear_1910_5323" x1="13.5116" y1="244.06" x2="76.2493" y2="241.133" gradientUnits="userSpaceOnUse">
<stop stop-color="#D6545B"/>
<stop offset="1" stop-color="#FC946D"/>
</linearGradient>
<linearGradient id="paint23_linear_1910_5323" x1="77.5886" y1="281.423" x2="67.1968" y2="282.488" gradientUnits="userSpaceOnUse">
<stop stop-color="#D6545B"/>
<stop offset="1" stop-color="#FC946D"/>
</linearGradient>
<linearGradient id="paint24_linear_1910_5323" x1="92.7892" y1="306.985" x2="74.701" y2="310.287" gradientUnits="userSpaceOnUse">
<stop stop-color="#D6545B"/>
<stop offset="1" stop-color="#FC946D"/>
</linearGradient>
<linearGradient id="paint25_linear_1910_5323" x1="112.088" y1="290.278" x2="85.1714" y2="297.924" gradientUnits="userSpaceOnUse">
<stop stop-color="#D6545B"/>
<stop offset="1" stop-color="#FC946D"/>
</linearGradient>
<linearGradient id="paint26_linear_1910_5323" x1="112.87" y1="298.694" x2="96.3003" y2="301.449" gradientUnits="userSpaceOnUse">
<stop stop-color="#D6545B"/>
<stop offset="1" stop-color="#FC946D"/>
</linearGradient>
<linearGradient id="paint27_linear_1910_5323" x1="31.328" y1="286.295" x2="23.7819" y2="286.327" gradientUnits="userSpaceOnUse">
<stop stop-color="#D6545B"/>
<stop offset="1" stop-color="#FC946D"/>
</linearGradient>
<linearGradient id="paint28_linear_1910_5323" x1="393.455" y1="230.368" x2="451.574" y2="227.72" gradientUnits="userSpaceOnUse">
<stop stop-color="#D6545B"/>
<stop offset="1" stop-color="#FC946D"/>
</linearGradient>
<linearGradient id="paint29_linear_1910_5323" x1="420.419" y1="265.808" x2="410.522" y2="266.773" gradientUnits="userSpaceOnUse">
<stop stop-color="#D6545B"/>
<stop offset="1" stop-color="#FC946D"/>
</linearGradient>
<linearGradient id="paint30_linear_1910_5323" x1="434.831" y1="290.053" x2="417.594" y2="293.041" gradientUnits="userSpaceOnUse">
<stop stop-color="#D6545B"/>
<stop offset="1" stop-color="#FC946D"/>
</linearGradient>
<linearGradient id="paint31_linear_1910_5323" x1="453.14" y1="274.201" x2="427.393" y2="281.146" gradientUnits="userSpaceOnUse">
<stop stop-color="#D6545B"/>
<stop offset="1" stop-color="#FC946D"/>
</linearGradient>
<linearGradient id="paint32_linear_1910_5323" x1="453.879" y1="282.189" x2="438.095" y2="284.683" gradientUnits="userSpaceOnUse">
<stop stop-color="#D6545B"/>
<stop offset="1" stop-color="#FC946D"/>
</linearGradient>
<clipPath id="clip0_1910_5323">
<rect width="586" height="365" fill="white"/>
</clipPath>
</defs>
</svg>
